<?xml version="1.0" encoding="UTF-8" standalone="no"?>
<!-- Created with Inkscape (http://www.inkscape.org/) -->

<svg
   xmlns:dc="http://purl.org/dc/elements/1.1/"
   xmlns:cc="http://creativecommons.org/ns#"
   xmlns:rdf="http://www.w3.org/1999/02/22-rdf-syntax-ns#"
   xmlns:svg="http://www.w3.org/2000/svg"
   xmlns="http://www.w3.org/2000/svg"
   xmlns:xlink="http://www.w3.org/1999/xlink"
   xmlns:sodipodi="http://sodipodi.sourceforge.net/DTD/sodipodi-0.dtd"
   xmlns:inkscape="http://www.inkscape.org/namespaces/inkscape"
   version="1.0"
   width="200.05725mm"
   height="159.15633mm"
   viewBox="0 0 653.37122 487.12142"
   id="Layer_2"
   xml:space="preserve"
   inkscape:version="0.91 r13725"
   sodipodi:docname="morse.svg"><metadata
     id="metadata3375"><rdf:RDF><cc:Work
         rdf:about=""><dc:format>image/svg+xml</dc:format><dc:type
           rdf:resource="http://purl.org/dc/dcmitype/StillImage" /><dc:title></dc:title></cc:Work></rdf:RDF></metadata><sodipodi:namedview
     pagecolor="#ffffff"
     bordercolor="#666666"
     borderopacity="1"
     objecttolerance="10"
     gridtolerance="10"
     guidetolerance="10"
     inkscape:pageopacity="0"
     inkscape:pageshadow="2"
     inkscape:window-width="1362"
     inkscape:window-height="713"
     id="namedview3373"
     showgrid="true"
     inkscape:zoom="0.70710678"
     inkscape:cx="486.33734"
     inkscape:cy="453.47423"
     inkscape:window-x="0"
     inkscape:window-y="28"
     inkscape:window-maximized="1"
     inkscape:current-layer="g4337"
     units="mm"
     fit-margin-top="5"
     fit-margin-left="5"
     fit-margin-right="5"
     fit-margin-bottom="5"
     showguides="true"
     inkscape:guide-bbox="true"><sodipodi:guide
       position="417.28379,357.46287"
       orientation="0,1"
       id="guide6169" /><sodipodi:guide
       position="422.82367,333.79489"
       orientation="0,1"
       id="guide6171" /></sodipodi:namedview><defs
     id="defs3017"><pattern
       inkscape:collect="always"
       xlink:href="#pattern6024"
       id="pattern6157"
       patternTransform="matrix(0,1.1390226,-99.941674,0,-6.1398265,-3.5436731)" /><pattern
       inkscape:collect="always"
       xlink:href="#pattern6024"
       id="pattern6028"
       patternTransform="matrix(1.0205219,0,0,50.408574,-6.1398261,-3.5436731)" /><pattern
       inkscape:collect="always"
       xlink:href="#Strips1_10"
       id="pattern6024"
       patternTransform="matrix(0,1.1390226,-99.941674,0,0,-2.607005)" /><pattern
       inkscape:isstock="true"
       inkscape:stockid="Stripes 1:10"
       id="Strips1_10"
       patternTransform="translate(0,0) scale(10,10)"
       height="1"
       width="11"
       patternUnits="userSpaceOnUse"
       inkscape:collect="always"><rect
         id="rect5292"
         height="2"
         width="1"
         y="-0.5"
         x="0"
         style="fill:black;stroke:none" /></pattern></defs><g
     id="g2643"
     transform="translate(-6.1398265,434.44693)"><text
       x="54.051781"
       y="38.502422"
       style="font-size:10px;font-family:'DejaVu Sans'"
       id="text3411"><tspan
         x="54.051781"
         y="38.502422"
         id="tspan3413" /><tspan
         x="54.051781"
         y="38.502422"
         id="tspan3405" /><tspan
         x="54.051781"
         y="38.502422"
         id="tspan3407" /><tspan
         x="54.051781"
         y="38.502422"
         id="tspan3409" /></text>
<text
       x="54.051781"
       y="38.502422"
       style="font-size:10px;font-family:'DejaVu Sans'"
       id="text3401"><tspan
         x="54.051781"
         y="38.502422"
         id="tspan3403" /></text>
</g><g
     id="g4337"
     transform="translate(3.077329,-0.93666808)"><text
       style="font-size:22px;font-family:'DejaVu Sans'"
       id="text2872"
       y="-431.88559"
       x="67.249229"
       transform="translate(0,435.3836)">Morseaakkoset</text>
<text
       sodipodi:linespacing="125%"
       id="text3464"
       y="-408.22833"
       x="46.926098"
       style="font-style:normal;font-weight:normal;font-size:10.13887119px;line-height:125%;font-family:Sans;letter-spacing:0px;word-spacing:0px;fill:#000000;fill-opacity:1;stroke:none"
       xml:space="preserve"
       transform="translate(0,435.3836)"><tspan
         y="-408.22833"
         x="46.926098"
         id="tspan3466"
         sodipodi:role="line">1. Pisteen pituus on yksi yksikkö.</tspan><tspan
         id="tspan3468"
         y="-395.55475"
         x="46.926098"
         sodipodi:role="line">2. Viivan pituus on kolme yksikköä</tspan><tspan
         id="tspan3470"
         y="-382.88116"
         x="46.926098"
         sodipodi:role="line">3. Kirjainten osien väli on yksi yksikkö.</tspan><tspan
         id="tspan3474"
         y="-370.20758"
         x="46.926098"
         sodipodi:role="line">4. Kirjainten väli on kolme yksikköä.</tspan><tspan
         y="-357.53397"
         x="46.926098"
         sodipodi:role="line"
         id="tspan6151">5. Sanojen väli on seitsemän yksikköä</tspan></text>
<g
       id="g3272"
       transform="translate(-3.8164787,-7.0398158)"><g
         id="g3132"
         transform="translate(-18.434315,0)"><circle
           id="circle3554"
           transform="matrix(1.296365,0,0,1.296365,202.38592,-57.340438)"
           r="3.5550001"
           cy="141.48"
           cx="39.400002" /><rect
           id="rect3556"
           y="121.45683"
           x="285.73181"
           height="9.217145"
           width="27.651466" /><circle
           id="circle3558"
           transform="matrix(1.296365,0,0,1.296365,220.82023,-57.340438)"
           r="3.5550001"
           cy="141.48"
           cx="39.400002" /><circle
           id="circle3560"
           transform="matrix(1.296365,0,0,1.296365,202.38592,-38.906127)"
           r="3.5550001"
           cy="141.48"
           cx="39.400002" /><circle
           id="circle3562"
           transform="matrix(1.296365,0,0,1.296365,220.82023,-38.906126)"
           r="3.5550001"
           cy="141.48"
           cx="39.400002" /><circle
           id="circle3564"
           transform="matrix(1.296365,0,0,1.296365,239.25454,-38.906126)"
           r="3.5550001"
           cy="141.48"
           cx="39.400002" /><rect
           id="rect3566"
           y="139.89114"
           x="304.16614"
           height="9.217145"
           width="27.651466" /><circle
           id="circle3568"
           transform="matrix(1.296365,0,0,1.296365,202.38592,-20.471816)"
           r="3.5550001"
           cy="141.48"
           cx="39.400002" /><rect
           id="rect3570"
           y="158.32545"
           x="267.29752"
           height="9.217145"
           width="27.651466" /><rect
           id="rect3572"
           y="158.32544"
           x="304.16614"
           height="9.217145"
           width="27.651466" /><rect
           id="rect3574"
           y="176.75975"
           x="248.8632"
           height="9.217145"
           width="27.651466" /><circle
           id="circle3576"
           transform="matrix(1.296365,0,0,1.296365,239.25454,-2.0375037)"
           r="3.5550001"
           cy="141.48"
           cx="39.400002" /><circle
           id="circle3578"
           transform="matrix(1.296365,0,0,1.296365,257.68885,-2.0375037)"
           r="3.5550001"
           cy="141.48"
           cx="39.400002" /><rect
           id="rect3580"
           y="176.75977"
           x="322.60043"
           height="9.217145"
           width="27.651466" /><rect
           id="rect3588"
           y="195.19408"
           x="248.8632"
           height="9.217145"
           width="27.651466" /><rect
           id="rect3590"
           y="195.19408"
           x="304.16614"
           height="9.217145"
           width="27.651466" /><rect
           id="rect3592"
           y="195.19408"
           x="341.03476"
           height="9.217145"
           width="27.651466" /><circle
           id="circle3594"
           transform="matrix(1.296365,0,0,1.296365,239.25454,16.396807)"
           r="3.5550001"
           cy="141.48"
           cx="39.400002" /><rect
           id="rect3596"
           y="213.62837"
           x="248.8632"
           height="9.217145"
           width="27.651466" /><rect
           id="rect3598"
           y="213.62839"
           x="285.73181"
           height="9.217145"
           width="27.651466" /><circle
           id="circle3600"
           transform="matrix(1.296365,0,0,1.296365,276.12316,34.831118)"
           r="3.5550001"
           cy="141.48"
           cx="39.400002" /><circle
           id="circle3602"
           transform="matrix(1.296365,0,0,1.296365,294.55748,34.831118)"
           r="3.5550001"
           cy="141.48"
           cx="39.400002" /><g
           id="g2615"
           transform="translate(-1.8497366,0)"><text
             style="font-size:18px;font-family:'DejaVu Sans'"
             xml:space="preserve"
             id="text3604"
             y="130.67398"
             x="231.22548">U</text>
<text
             style="font-size:18px;font-family:'DejaVu Sans'"
             xml:space="preserve"
             id="text3608"
             y="149.10829"
             x="231.74756">V</text>
<text
             style="font-size:18px;font-family:'DejaVu Sans'"
             xml:space="preserve"
             id="text3612"
             y="167.31757"
             x="229.15523">W</text>
<text
             style="font-size:18px;font-family:'DejaVu Sans'"
             xml:space="preserve"
             id="text3616"
             y="185.97691"
             x="231.73405">X</text>
<text
             style="font-size:18px;font-family:'DejaVu Sans'"
             xml:space="preserve"
             id="text3620"
             y="204.41122"
             x="231.76105">Y</text>
<text
             style="font-size:18px;font-family:'DejaVu Sans'"
             xml:space="preserve"
             id="text3624"
             y="222.84554"
             x="232.27863">Z</text>
</g></g><g
         id="g3169"><circle
           id="circle2870"
           transform="matrix(1.296365,0,0,1.296365,-9.6086576,-57.340437)"
           r="3.5550001"
           cy="141.48"
           cx="39.400002" /><rect
           id="rect3010"
           y="121.45683"
           x="55.302933"
           height="9.217145"
           width="27.651466" /><circle
           id="circle3324"
           transform="matrix(1.296365,0,0,1.296365,27.496285,-38.906126)"
           r="3.5550001"
           cy="141.48"
           cx="39.400002" /><circle
           id="circle3326"
           transform="matrix(1.296365,0,0,1.296365,45.694276,-38.611276)"
           r="3.5550001"
           cy="141.48"
           cx="39.400002" /><circle
           id="circle3328"
           transform="matrix(1.296365,0,0,1.296365,64.122679,-38.906126)"
           r="3.5550001"
           cy="141.48"
           cx="39.400002" /><rect
           id="rect3330"
           y="158.32544"
           x="36.868622"
           height="9.217145"
           width="27.651466" /><circle
           id="circle3332"
           transform="matrix(1.296365,0,0,1.296365,27.23125,-20.471815)"
           r="3.5550001"
           cy="141.48"
           cx="39.400002" /><rect
           id="rect3334"
           y="158.32544"
           x="92.171555"
           height="9.217145"
           width="27.651466" /><circle
           id="circle3336"
           transform="matrix(1.296365,0,0,1.296365,82.623628,-20.471815)"
           r="3.5550001"
           cy="141.48"
           cx="39.400002" /><rect
           id="rect3338"
           y="176.75977"
           x="36.868622"
           height="9.217145"
           width="27.651466" /><circle
           id="circle3340"
           transform="matrix(1.296365,0,0,1.296365,27.17162,-2.0375044)"
           r="3.5550001"
           cy="141.48"
           cx="39.400002" /><circle
           id="circle3342"
           transform="matrix(1.296365,0,0,1.296365,45.694276,-1.8597136)"
           r="3.5550001"
           cy="141.48"
           cx="39.400002" /><circle
           id="circle3412"
           transform="matrix(1.296365,0,0,1.296365,-9.6086576,16.396807)"
           r="3.5550001"
           cy="141.48"
           cx="39.400002" /><circle
           id="circle3414"
           transform="matrix(1.296365,0,0,1.296365,-9.6086574,34.831118)"
           r="3.5550001"
           cy="141.48"
           cx="39.400002" /><circle
           id="circle3416"
           transform="matrix(1.296365,0,0,1.296365,8.8256537,34.831118)"
           r="3.5550001"
           cy="141.48"
           cx="39.400002" /><rect
           id="rect3420"
           y="213.62837"
           x="73.737244"
           height="9.217145"
           width="27.651466" /><circle
           id="circle3422"
           transform="matrix(1.296365,0,0,1.296365,64.128587,34.831118)"
           r="3.5550001"
           cy="141.48"
           cx="39.400002" /><rect
           id="rect3424"
           y="232.06268"
           x="36.868622"
           height="9.217145"
           width="27.651466" /><rect
           id="rect3426"
           y="232.06268"
           x="73.737244"
           height="9.217145"
           width="27.651466" /><circle
           id="circle3428"
           transform="matrix(1.296365,0,0,1.296365,64.128587,53.265429)"
           r="3.5550001"
           cy="141.48"
           cx="39.400002" /><circle
           id="circle3458"
           transform="matrix(1.296365,0,0,1.296365,-9.6086576,71.69974)"
           r="3.5550001"
           cy="141.48"
           cx="39.400002" /><circle
           id="circle3460"
           transform="matrix(1.296365,0,0,1.296365,8.8256535,71.69974)"
           r="3.5550001"
           cy="141.48"
           cx="39.400002" /><circle
           id="circle3462"
           transform="matrix(1.296365,0,0,1.296365,27.259965,71.69974)"
           r="3.5550001"
           cy="141.48"
           cx="39.400002" /><circle
           id="circle3464"
           transform="matrix(1.296365,0,0,1.296365,45.694276,71.69974)"
           r="3.5550001"
           cy="141.48"
           cx="39.400002" /><circle
           id="circle3466"
           transform="matrix(1.296365,0,0,1.296365,-9.6086576,90.134051)"
           r="3.5550001"
           cy="141.48"
           cx="39.400002" /><circle
           id="circle3468"
           transform="matrix(1.296365,0,0,1.296365,8.8256537,90.134051)"
           r="3.5550001"
           cy="141.48"
           cx="39.400002" /><circle
           id="circle3470"
           transform="matrix(1.296365,0,0,1.296365,-9.6086576,108.56836)"
           r="3.5550001"
           cy="141.48"
           cx="39.400002" /><rect
           id="rect3472"
           y="287.36563"
           x="55.302933"
           height="9.217145"
           width="27.651466" /><rect
           id="rect3474"
           y="287.36563"
           x="92.171555"
           height="9.217145"
           width="27.651466" /><rect
           id="rect3476"
           y="287.36563"
           x="129.04018"
           height="9.217145"
           width="27.651466" /><rect
           id="rect3478"
           y="305.79993"
           x="36.868622"
           height="9.217145"
           width="27.651466" /><circle
           id="circle3480"
           transform="matrix(1.296365,0,0,1.296365,27.259965,127.00267)"
           r="3.5550001"
           cy="141.48"
           cx="39.400002" /><rect
           id="rect3482"
           y="305.79996"
           x="92.171555"
           height="9.217145"
           width="27.651466" /><circle
           id="circle3484"
           transform="matrix(1.296365,0,0,1.296365,-9.6086576,145.43698)"
           r="3.5550001"
           cy="141.48"
           cx="39.400002" /><rect
           id="rect3486"
           y="324.23425"
           x="55.302933"
           height="9.217145"
           width="27.651466" /><circle
           id="circle3488"
           transform="matrix(1.296365,0,0,1.296365,45.694276,145.43698)"
           r="3.5550001"
           cy="141.48"
           cx="39.400002" /><circle
           id="circle3490"
           transform="matrix(1.296365,0,0,1.296365,64.128587,145.43698)"
           r="3.5550001"
           cy="141.48"
           cx="39.400002" /><rect
           id="rect3492"
           y="342.66858"
           x="36.868622"
           height="9.217145"
           width="27.651466" /><rect
           id="rect3494"
           y="342.66858"
           x="73.737244"
           height="9.217145"
           width="27.651466" /><rect
           id="rect3496"
           y="361.10287"
           x="36.868622"
           height="9.217145"
           width="27.651466" /><circle
           id="circle3498"
           transform="matrix(1.296365,0,0,1.296365,27.259965,182.30561)"
           r="3.5550001"
           cy="141.48"
           cx="39.400002" /><rect
           id="rect3500"
           y="379.5372"
           x="36.868622"
           height="9.217145"
           width="27.651466" /><rect
           id="rect3502"
           y="379.5372"
           x="73.737244"
           height="9.217145"
           width="27.651466" /><rect
           id="rect3504"
           y="379.5372"
           x="110.60587"
           height="9.217145"
           width="27.651466" /><circle
           id="circle3506"
           transform="matrix(1.296365,0,0,1.296365,-9.6086576,219.17423)"
           r="3.5550001"
           cy="141.48"
           cx="39.400002" /><rect
           id="rect3508"
           y="397.9715"
           x="55.302933"
           height="9.217145"
           width="27.651466" /><rect
           id="rect3510"
           y="397.9715"
           x="92.171555"
           height="9.217145"
           width="27.651466" /><circle
           id="circle3512"
           transform="matrix(1.296365,0,0,1.296365,82.562898,219.17423)"
           r="3.5550001"
           cy="141.48"
           cx="39.400002" /><rect
           id="rect3514"
           y="416.40579"
           x="36.868622"
           height="9.217145"
           width="27.651466" /><rect
           id="rect3516"
           y="416.40582"
           x="73.737244"
           height="9.217145"
           width="27.651466" /><circle
           id="circle3518"
           transform="matrix(1.296365,0,0,1.296365,64.128587,237.60854)"
           r="3.5550001"
           cy="141.48"
           cx="39.400002" /><rect
           id="rect3520"
           y="416.40582"
           x="129.04018"
           height="9.217145"
           width="27.651466" /><circle
           id="circle3522"
           transform="matrix(1.296365,0,0,1.296365,-9.6086574,256.04285)"
           r="3.5550001"
           cy="141.48"
           cx="39.400002" /><rect
           id="rect3524"
           y="434.84012"
           x="55.302933"
           height="9.217145"
           width="27.651466" /><circle
           id="circle3526"
           transform="matrix(1.296365,0,0,1.296365,45.694276,256.04285)"
           r="3.5550001"
           cy="141.48"
           cx="39.400002" /><circle
           id="circle3528"
           transform="matrix(1.296365,0,0,1.296365,27.259965,274.47716)"
           r="3.5550001"
           cy="141.48"
           cx="39.400002" /><circle
           id="circle3530"
           transform="matrix(1.296365,0,0,1.296365,8.8256537,274.47716)"
           r="3.5550001"
           cy="141.48"
           cx="39.400002" /><circle
           id="circle3532"
           transform="matrix(1.296365,0,0,1.296365,-9.6086574,274.47716)"
           r="3.5550001"
           cy="141.48"
           cx="39.400002" /><rect
           id="rect3534"
           y="471.70874"
           x="36.868622"
           height="9.217145"
           width="27.651466" /><g
           id="g2573"><text
             style="font-size:18px;font-family:'DejaVu Sans'"
             xml:space="preserve"
             id="text3309"
             y="130.67398"
             x="17.138149">A</text>
<text
             style="font-size:18px;font-family:'DejaVu Sans'"
             xml:space="preserve"
             id="text3344"
             y="149.10829"
             x="16.953625">B</text>
<text
             style="font-size:18px;font-family:'DejaVu Sans'"
             xml:space="preserve"
             id="text3350"
             y="167.31757"
             x="16.535072">C</text>
<text
             style="font-size:18px;font-family:'DejaVu Sans'"
             xml:space="preserve"
             id="text3356"
             y="185.97691"
             x="16.409058">D</text>
<text
             style="font-size:18px;font-family:'DejaVu Sans'"
             xml:space="preserve"
             id="text3360"
             y="204.41122"
             x="16.904119">E</text>
<text
             style="font-size:18px;font-family:'DejaVu Sans'"
             xml:space="preserve"
             id="text3364"
             y="222.84554"
             x="17.322672">F</text>
<text
             style="font-size:18px;font-family:'DejaVu Sans'"
             xml:space="preserve"
             id="text3368"
             y="241.05481"
             x="16.202032">G</text>
<text
             style="font-size:18px;font-family:'DejaVu Sans'"
             xml:space="preserve"
             id="text3372"
             y="259.71414"
             x="16.634085">H</text>
<text
             style="font-size:18px;font-family:'DejaVu Sans'"
             xml:space="preserve"
             id="text3376"
             y="278.14847"
             x="20.693594">I</text>
<text
             style="font-size:18px;font-family:'DejaVu Sans'"
             xml:space="preserve"
             id="text3380"
             y="296.58276"
             x="19.145401">J</text>
<text
             style="font-size:18px;font-family:'DejaVu Sans'"
             xml:space="preserve"
             id="text3384"
             y="315.01709"
             x="16.481066">K</text>
<text
             style="font-size:18px;font-family:'DejaVu Sans'"
             xml:space="preserve"
             id="text3388"
             y="333.45139"
             x="17.813232">L</text>
<text
             style="font-size:18px;font-family:'DejaVu Sans'"
             xml:space="preserve"
             id="text3392"
             y="351.88571"
             x="15.621459">M</text>
<text
             style="font-size:18px;font-family:'DejaVu Sans'"
             xml:space="preserve"
             id="text3396"
             y="370.32001"
             x="16.683592">N</text>
<text
             style="font-size:18px;font-family:'DejaVu Sans'"
             xml:space="preserve"
             id="text3400"
             y="388.75433"
             x="16.085016">O</text>
<text
             style="font-size:18px;font-family:'DejaVu Sans'"
             xml:space="preserve"
             id="text3404"
             y="425.62296"
             x="16.058014">Q</text>
<text
             style="font-size:18px;font-family:'DejaVu Sans'"
             xml:space="preserve"
             id="text3408"
             y="407.18866"
             x="16.82761">P</text>
<text
             style="font-size:18px;font-family:'DejaVu Sans'"
             xml:space="preserve"
             id="text3536"
             y="444.05728"
             x="16.022009">R</text>
<text
             style="font-size:18px;font-family:'DejaVu Sans'"
             xml:space="preserve"
             id="text3540"
             y="462.49158"
             x="17.205658">S</text>
<text
             style="font-size:18px;font-family:'DejaVu Sans'"
             xml:space="preserve"
             id="text3544"
             y="480.9259"
             x="17.62421">T</text>
</g><use
           xlink:href="#rect3010"
           height="500.99399"
           width="414.772"
           y="0"
           x="0"
           id="use2703"
           transform="translate(-18.43431,18.434311)" /></g><g
         id="g3051"
         transform="translate(-18.434314,64.295099)"><use
           xlink:href="#rect3010"
           height="500.99399"
           width="414.772"
           y="0"
           x="0"
           id="use2707"
           transform="translate(211.99458,119.82302)" /><use
           xlink:href="#rect3010"
           height="500.99399"
           width="414.772"
           y="0"
           x="0"
           id="use2709"
           transform="translate(248.8632,119.82301)" /><use
           xlink:href="#use2709"
           height="500.99399"
           width="414.772"
           y="0"
           x="0"
           id="use2711" /><use
           xlink:href="#rect3010"
           height="500.99399"
           width="414.772"
           y="0"
           x="0"
           id="use2713"
           transform="translate(285.73182,119.82301)" /><use
           xlink:href="#rect3010"
           height="500.99399"
           width="414.772"
           y="0"
           x="0"
           id="use2715"
           transform="translate(322.60045,119.82301)" /><use
           xlink:href="#circle2870"
           height="500.99399"
           width="414.772"
           y="0"
           x="0"
           id="use2717"
           transform="translate(211.99458,119.82302)" /><use
           xlink:href="#circle2870"
           height="500.99399"
           width="414.772"
           y="0"
           x="0"
           id="use2719"
           transform="translate(211.99458,138.25733)" /><use
           xlink:href="#circle2870"
           height="500.99399"
           width="414.772"
           y="0"
           x="0"
           id="use2721"
           transform="translate(230.42889,138.25733)" /><use
           xlink:href="#rect3010"
           height="500.99399"
           width="414.772"
           y="0"
           x="0"
           id="use2723"
           transform="translate(230.42889,138.25733)" /><use
           xlink:href="#rect3010"
           height="500.99399"
           width="414.772"
           y="0"
           x="0"
           id="use2725"
           transform="translate(267.29751,138.25733)" /><use
           xlink:href="#rect3010"
           height="500.99399"
           width="414.772"
           y="0"
           x="0"
           id="use2727"
           transform="translate(304.16613,138.25732)" /><use
           xlink:href="#circle2870"
           height="500.99399"
           width="414.772"
           y="0"
           x="0"
           id="use2779"
           transform="translate(211.99458,156.69164)" /><use
           xlink:href="#use2779"
           height="500.99399"
           width="414.772"
           y="0"
           x="0"
           id="use2781"
           transform="translate(18.434309,4.0522843e-6)" /><use
           xlink:href="#use2781"
           height="500.99399"
           width="414.772"
           y="0"
           x="0"
           id="use2783"
           transform="translate(18.434311,0)" /><use
           xlink:href="#use2723"
           height="500.99399"
           width="414.772"
           y="0"
           x="0"
           id="use2785"
           transform="translate(18.434309,18.434308)" /><use
           xlink:href="#use2785"
           height="500.99399"
           width="414.772"
           y="0"
           x="0"
           id="use2787"
           transform="translate(36.868622,9.8155382e-8)" /><use
           xlink:href="#use2779"
           height="500.99399"
           width="414.772"
           y="0"
           x="0"
           id="use2789"
           transform="translate(2.324722e-7,18.434311)" /><use
           xlink:href="#use2789"
           height="500.99399"
           width="414.772"
           y="0"
           x="0"
           id="use2791"
           transform="translate(18.434311,7.8636818e-8)" /><use
           xlink:href="#use2791"
           height="500.99399"
           width="414.772"
           y="0"
           x="0"
           id="use2793"
           transform="translate(18.434311,0)" /><use
           xlink:href="#use2793"
           height="500.99399"
           width="414.772"
           y="0"
           x="0"
           id="use2795"
           transform="translate(18.434311,0)" /><use
           xlink:href="#use2785"
           height="500.99399"
           width="414.772"
           y="0"
           x="0"
           id="use2797"
           transform="translate(18.434313,18.434307)" /><use
           xlink:href="#use2789"
           height="500.99399"
           width="414.772"
           y="0"
           x="0"
           id="use2799"
           transform="translate(-2.3247221e-7,18.434311)" /><use
           xlink:href="#use2799"
           height="500.99399"
           width="414.772"
           y="0"
           x="0"
           id="use2801"
           transform="translate(18.434311,-4.2724257e-8)" /><use
           xlink:href="#use2801"
           height="500.99399"
           width="414.772"
           y="0"
           x="0"
           id="use2803"
           transform="translate(18.434311,0)" /><use
           xlink:href="#use2803"
           height="500.99399"
           width="414.772"
           y="0"
           x="0"
           id="use2805"
           transform="translate(18.434312,0)" /><use
           xlink:href="#use2805"
           height="500.99399"
           width="414.772"
           y="0"
           x="0"
           id="use2807"
           transform="translate(18.434311,0)" /><use
           xlink:href="#use2789"
           height="500.99399"
           width="414.772"
           y="0"
           x="0"
           id="use2809"
           transform="translate(36.868622,36.868622)" /><use
           xlink:href="#use2791"
           height="500.99399"
           width="414.772"
           y="0"
           x="0"
           id="use2811"
           transform="translate(36.868622,36.868622)" /><use
           xlink:href="#use2793"
           height="500.99399"
           width="414.772"
           y="0"
           x="0"
           id="use2813"
           transform="translate(36.868622,36.868622)" /><use
           xlink:href="#use2795"
           height="500.99399"
           width="414.772"
           y="0"
           x="0"
           id="use2815"
           transform="translate(36.868622,36.868622)" /><use
           xlink:href="#use2797"
           height="500.99399"
           width="414.772"
           y="0"
           x="0"
           id="use2817"
           transform="translate(-73.737245,36.868622)" /><use
           xlink:href="#use2779"
           height="500.99399"
           width="414.772"
           y="0"
           x="0"
           id="use2819" /><use
           xlink:href="#use2781"
           height="500.99399"
           width="414.772"
           y="0"
           x="0"
           id="use2821" /><use
           xlink:href="#use2783"
           height="500.99399"
           width="414.772"
           y="0"
           x="0"
           id="use2823" /><use
           xlink:href="#use2785"
           height="500.99399"
           width="414.772"
           y="0"
           x="0"
           id="use2825" /><use
           xlink:href="#use2787"
           height="500.99399"
           width="414.772"
           y="0"
           x="0"
           id="use2827" /><use
           xlink:href="#use2779"
           height="500.99399"
           width="414.772"
           y="0"
           x="0"
           id="use2829"
           transform="translate(73.737242,73.737248)" /><use
           xlink:href="#use2781"
           height="500.99399"
           width="414.772"
           y="0"
           x="0"
           id="use2831"
           transform="translate(73.737244,73.737244)" /><use
           xlink:href="#use2783"
           height="500.99399"
           width="414.772"
           y="0"
           x="0"
           id="use2833"
           transform="translate(73.737244,73.737244)" /><use
           xlink:href="#use2825"
           height="500.99399"
           width="414.772"
           y="0"
           x="0"
           id="use2845"
           transform="translate(-55.302932,73.73724)" /><use
           xlink:href="#use2827"
           height="500.99399"
           width="414.772"
           y="0"
           x="0"
           id="use2847"
           transform="translate(-55.302931,73.737251)" /><use
           xlink:href="#use2829"
           height="500.99399"
           width="414.772"
           y="0"
           x="0"
           id="use2849"
           transform="translate(36.868622,18.434311)" /><use
           xlink:href="#use2831"
           height="500.99399"
           width="414.772"
           y="0"
           x="0"
           id="use2851"
           transform="translate(36.868622,18.434311)" /><use
           xlink:href="#use2845"
           height="500.99399"
           width="414.772"
           y="0"
           x="0"
           id="use2855"
           transform="translate(36.868622,18.434311)" /><use
           xlink:href="#use2847"
           height="500.99399"
           width="414.772"
           y="0"
           x="0"
           id="use2857"
           transform="translate(36.868622,18.434311)" /><use
           xlink:href="#use2855"
           height="500.99399"
           width="414.772"
           y="0"
           x="0"
           id="use2859"
           transform="translate(-36.868622,3.3648014e-7)" /><use
           xlink:href="#use2707"
           height="500.99399"
           width="414.772"
           y="0"
           x="0"
           id="use2861"
           transform="translate(-18.434316,147.4745)" /><use
           xlink:href="#use2709"
           height="500.99399"
           width="414.772"
           y="0"
           x="0"
           id="use2863"
           transform="translate(-18.434316,147.4745)" /><use
           xlink:href="#use2711"
           height="500.99399"
           width="414.772"
           y="0"
           x="0"
           id="use2865"
           transform="translate(-18.434316,147.4745)" /><use
           xlink:href="#use2713"
           height="500.99399"
           width="414.772"
           y="0"
           x="0"
           id="use2867"
           transform="translate(-18.434316,147.4745)" /><use
           xlink:href="#use2715"
           height="500.99399"
           width="414.772"
           y="0"
           x="0"
           id="use2869"
           transform="translate(-18.434316,147.4745)" /><use
           xlink:href="#use2869"
           height="500.99399"
           width="414.772"
           y="0"
           x="0"
           id="use2873"
           transform="translate(-110.60587,18.434302)" /><use
           xlink:href="#use2851"
           height="500.99399"
           width="414.772"
           y="0"
           x="0"
           id="use2875"
           transform="translate(18.434312,18.434312)" /><use
           xlink:href="#use2861"
           height="500.99399"
           width="414.772"
           y="0"
           x="0"
           id="use2877"
           transform="translate(36.868625,18.434302)" /><use
           xlink:href="#use2863"
           height="500.99399"
           width="414.772"
           y="0"
           x="0"
           id="use2879"
           transform="translate(36.868625,18.434302)" /><use
           xlink:href="#use2865"
           height="500.99399"
           width="414.772"
           y="0"
           x="0"
           id="use2881"
           transform="translate(36.868625,18.434302)" /><use
           xlink:href="#use2867"
           height="500.99399"
           width="414.772"
           y="0"
           x="0"
           id="use2883"
           transform="translate(36.868625,18.434302)" /><use
           xlink:href="#use2869"
           height="500.99399"
           width="414.772"
           y="0"
           x="0"
           id="use2885"
           transform="translate(36.868625,18.434302)" /><g
           id="g3029"><text
             style="font-size:18px;font-family:'DejaVu Sans'"
             xml:space="preserve"
             id="text2889"
             y="250.49699"
             x="231.75656">1</text>
<text
             style="font-size:18px;font-family:'DejaVu Sans'"
             xml:space="preserve"
             id="text2893"
             y="268.9313"
             x="231.284">2</text>
<text
             style="font-size:18px;font-family:'DejaVu Sans'"
             xml:space="preserve"
             id="text2897"
             y="287.14056"
             x="231.09947">3</text>
<text
             style="font-size:18px;font-family:'DejaVu Sans'"
             xml:space="preserve"
             id="text2901"
             y="305.79993"
             x="231.39651">4</text>
<text
             style="font-size:18px;font-family:'DejaVu Sans'"
             xml:space="preserve"
             id="text2905"
             y="324.23422"
             x="231.05447">5</text>
<text
             style="font-size:18px;font-family:'DejaVu Sans'"
             xml:space="preserve"
             id="text2909"
             y="342.66855"
             x="231.14449">6</text>
<text
             style="font-size:18px;font-family:'DejaVu Sans'"
             xml:space="preserve"
             id="text2913"
             y="360.87781"
             x="231.04997">7</text>
<text
             style="font-size:18px;font-family:'DejaVu Sans'"
             xml:space="preserve"
             id="text2917"
             y="379.53714"
             x="231.09947">8</text>
<text
             style="font-size:18px;font-family:'DejaVu Sans'"
             xml:space="preserve"
             id="text2921"
             y="397.97147"
             x="231.09048">9</text>
<text
             style="font-size:18px;font-family:'DejaVu Sans'"
             xml:space="preserve"
             id="text2925"
             y="416.40576"
             x="231.12648">0</text>
</g></g></g><text
       xml:space="preserve"
       style="font-style:normal;font-variant:normal;font-weight:normal;font-stretch:normal;font-size:23.04288864px;line-height:150%;font-family:Sans;-inkscape-font-specification:'Sans, Normal';text-align:start;letter-spacing:0px;word-spacing:0px;writing-mode:lr-tb;text-anchor:start;fill:#000000;fill-opacity:1;stroke:none;stroke-width:1px;stroke-linecap:butt;stroke-linejoin:miter;stroke-opacity:1"
       x="462.16534"
       y="11.401606"
       id="text6153"
       sodipodi:linespacing="150%"><tspan
         sodipodi:role="line"
         id="tspan6155"
         x="462.16534"
         y="11.401606">Binääriluvut</tspan></text>
<text
       xml:space="preserve"
       style="font-style:normal;font-variant:normal;font-weight:normal;font-stretch:normal;font-size:13.82573318px;line-height:150%;font-family:Sans;-inkscape-font-specification:'Sans, Normal';text-align:start;letter-spacing:0px;word-spacing:0px;writing-mode:lr-tb;text-anchor:start;fill:#000000;fill-opacity:1;stroke:none;stroke-width:1px;stroke-linecap:butt;stroke-linejoin:miter;stroke-opacity:1"
       x="431.43628"
       y="34.908813"
       id="text6159"
       sodipodi:linespacing="150%"><tspan
         sodipodi:role="line"
         x="431.43628"
         y="34.908813"
         id="tspan6163"
         style="font-size:11.52144454px">Tässä tehtävässä kukin binääriluku</tspan><tspan
         sodipodi:role="line"
         x="431.43628"
         y="45.278114"
         id="tspan6165"
         style="font-size:11.52144454px">alkaa lyhyellä synkronointipulssilla,</tspan><tspan
         sodipodi:role="line"
         x="431.43628"
         y="55.647415"
         style="font-size:11.52144454px"
         id="tspan6201">ja lukujen välissä on pieni viive.</tspan></text>
</g><rect
     style="opacity:0.2;fill:url(#pattern6157);fill-opacity:1;stroke:#000000;stroke-width:1.63296056;stroke-miterlimit:4;stroke-dasharray:none;stroke-opacity:1"
     id="rect4529"
     width="203.34641"
     height="375.40872"
     x="432.87872"
     y="96.496109" /><rect
     y="96.496109"
     x="432.87872"
     height="375.40872"
     width="203.34641"
     id="rect6026"
     style="opacity:0.2;fill:url(#pattern6028);fill-opacity:1;stroke:#000000;stroke-width:1.63296056;stroke-miterlimit:4;stroke-dasharray:none;stroke-opacity:1" /><path
     style="fill:none;fill-rule:evenodd;stroke:#000000;stroke-width:0.9217155px;stroke-linecap:butt;stroke-linejoin:miter;stroke-opacity:1"
     d="m 454.07275,147.0882 67.74609,0 0,-25.43935 22.58203,0 0,25.43935 22.58204,0"
     id="path6103"
     inkscape:connector-curvature="0" /><path
     style="fill:none;fill-rule:evenodd;stroke:#000000;stroke-width:0.9217155px;stroke-linecap:butt;stroke-linejoin:miter;stroke-opacity:1"
     d="m 454.07275,197.31513 45.16406,0 0,-25.43934 22.58203,0 0,25.43934 45.16407,0"
     id="path6105"
     inkscape:connector-curvature="0" /><path
     style="fill:none;fill-rule:evenodd;stroke:#000000;stroke-width:0.9217155px;stroke-linecap:butt;stroke-linejoin:miter;stroke-opacity:1"
     d="m 454.07275,248.19383 45.16406,0 0,-25.43935 45.16406,0 0,25.43935 22.58204,0"
     id="path6107"
     inkscape:connector-curvature="0" /><path
     style="fill:none;fill-rule:evenodd;stroke:#000000;stroke-width:0.9217155px;stroke-linecap:butt;stroke-linejoin:miter;stroke-opacity:1"
     d="m 454.07275,298.09488 22.58203,0 0,-25.43935 22.58203,0 0,25.43935 67.7461,0"
     id="path6109"
     inkscape:connector-curvature="0" /><path
     style="fill:none;fill-rule:evenodd;stroke:#000000;stroke-width:0.9217155px;stroke-linecap:butt;stroke-linejoin:miter;stroke-opacity:1"
     d="m 454.07275,348.64769 22.58203,0 0,-25.43934 22.58203,0 0,25.43934 22.58203,0 0,-25.43934 22.58203,0 0,25.43934 22.58204,0"
     id="path6111"
     inkscape:connector-curvature="0" /><path
     style="fill:none;fill-rule:evenodd;stroke:#000000;stroke-width:0.9217155px;stroke-linecap:butt;stroke-linejoin:miter;stroke-opacity:1"
     d="m 454.07275,398.22287 22.58203,0 0,-25.43935 45.16406,0 0,25.43935 45.16407,0"
     id="path6113"
     inkscape:connector-curvature="0" /><path
     style="fill:none;fill-rule:evenodd;stroke:#000000;stroke-width:0.9217155px;stroke-linecap:butt;stroke-linejoin:miter;stroke-opacity:1"
     d="m 454.07275,448.12393 22.58203,0 0,-25.43935 67.74609,0 0,25.43935 22.58204,0"
     id="path6115"
     inkscape:connector-curvature="0" /><text
     xml:space="preserve"
     style="font-style:normal;font-variant:normal;font-weight:normal;font-stretch:normal;font-size:12.6735878px;line-height:150%;font-family:Sans;-inkscape-font-specification:'Sans, Normal';text-align:start;letter-spacing:0px;word-spacing:0px;writing-mode:lr-tb;text-anchor:start;fill:#000000;fill-opacity:1;stroke:none;stroke-width:1px;stroke-linecap:butt;stroke-linejoin:miter;stroke-opacity:1"
     x="589.56488"
     y="146.43646"
     id="text6117"
     sodipodi:linespacing="150%"><tspan
       sodipodi:role="line"
       id="tspan6119"
       x="589.56488"
       y="146.43646" /></text>
<text
     xml:space="preserve"
     style="font-style:normal;font-variant:normal;font-weight:normal;font-stretch:normal;font-size:23.04288864px;line-height:150%;font-family:Sans;-inkscape-font-specification:'Sans, Normal';text-align:start;letter-spacing:0px;word-spacing:0px;writing-mode:lr-tb;text-anchor:start;fill:#000000;fill-opacity:1;stroke:none;stroke-width:1px;stroke-linecap:butt;stroke-linejoin:miter;stroke-opacity:1"
     x="589.56488"
     y="146.43646"
     id="text6121"
     sodipodi:linespacing="150%"><tspan
       sodipodi:role="line"
       id="tspan6123"
       x="589.56488"
       y="146.43646">1</tspan></text>
<text
     xml:space="preserve"
     style="font-style:normal;font-variant:normal;font-weight:normal;font-stretch:normal;font-size:23.04288864px;line-height:150%;font-family:Sans;-inkscape-font-specification:'Sans, Normal';text-align:start;letter-spacing:0px;word-spacing:0px;writing-mode:lr-tb;text-anchor:start;fill:#000000;fill-opacity:1;stroke:none;stroke-width:1px;stroke-linecap:butt;stroke-linejoin:miter;stroke-opacity:1"
     x="589.56488"
     y="197.31516"
     id="text6125"
     sodipodi:linespacing="150%"><tspan
       sodipodi:role="line"
       id="tspan6127"
       x="589.56488"
       y="197.31516">2</tspan></text>
<text
     xml:space="preserve"
     style="font-style:normal;font-variant:normal;font-weight:normal;font-stretch:normal;font-size:23.04288864px;line-height:150%;font-family:Sans;-inkscape-font-specification:'Sans, Normal';text-align:start;letter-spacing:0px;word-spacing:0px;writing-mode:lr-tb;text-anchor:start;fill:#000000;fill-opacity:1;stroke:none;stroke-width:1px;stroke-linecap:butt;stroke-linejoin:miter;stroke-opacity:1"
     x="589.56488"
     y="248.19386"
     id="text6129"
     sodipodi:linespacing="150%"><tspan
       sodipodi:role="line"
       id="tspan6131"
       x="589.56488"
       y="248.19386">3</tspan></text>
<text
     xml:space="preserve"
     style="font-style:normal;font-variant:normal;font-weight:normal;font-stretch:normal;font-size:23.04288864px;line-height:150%;font-family:Sans;-inkscape-font-specification:'Sans, Normal';text-align:start;letter-spacing:0px;word-spacing:0px;writing-mode:lr-tb;text-anchor:start;fill:#000000;fill-opacity:1;stroke:none;stroke-width:1px;stroke-linecap:butt;stroke-linejoin:miter;stroke-opacity:1"
     x="589.56488"
     y="299.07251"
     id="text6133"
     sodipodi:linespacing="150%"><tspan
       sodipodi:role="line"
       id="tspan6135"
       x="589.56488"
       y="299.07251">4</tspan></text>
<text
     xml:space="preserve"
     style="font-style:normal;font-variant:normal;font-weight:normal;font-stretch:normal;font-size:23.04288864px;line-height:150%;font-family:Sans;-inkscape-font-specification:'Sans, Normal';text-align:start;letter-spacing:0px;word-spacing:0px;writing-mode:lr-tb;text-anchor:start;fill:#000000;fill-opacity:1;stroke:none;stroke-width:1px;stroke-linecap:butt;stroke-linejoin:miter;stroke-opacity:1"
     x="589.56488"
     y="349.95123"
     id="text6137"
     sodipodi:linespacing="150%"><tspan
       sodipodi:role="line"
       id="tspan6139"
       x="589.56488"
       y="349.95123">5</tspan></text>
<text
     xml:space="preserve"
     style="font-style:normal;font-variant:normal;font-weight:normal;font-stretch:normal;font-size:23.04288864px;line-height:150%;font-family:Sans;-inkscape-font-specification:'Sans, Normal';text-align:start;letter-spacing:0px;word-spacing:0px;writing-mode:lr-tb;text-anchor:start;fill:#000000;fill-opacity:1;stroke:none;stroke-width:1px;stroke-linecap:butt;stroke-linejoin:miter;stroke-opacity:1"
     x="589.56488"
     y="400.82993"
     id="text6141"
     sodipodi:linespacing="150%"><tspan
       sodipodi:role="line"
       id="tspan6143"
       x="589.56488"
       y="400.82993">6</tspan></text>
<text
     xml:space="preserve"
     style="font-style:normal;font-variant:normal;font-weight:normal;font-stretch:normal;font-size:23.04288864px;line-height:150%;font-family:Sans;-inkscape-font-specification:'Sans, Normal';text-align:start;letter-spacing:0px;word-spacing:0px;writing-mode:lr-tb;text-anchor:start;fill:#000000;fill-opacity:1;stroke:none;stroke-width:1px;stroke-linecap:butt;stroke-linejoin:miter;stroke-opacity:1"
     x="589.56488"
     y="451.70862"
     id="text6145"
     sodipodi:linespacing="150%"><tspan
       sodipodi:role="line"
       id="tspan6147"
       x="589.56488"
       y="451.70862">7</tspan></text>
<path
     inkscape:connector-curvature="0"
     id="path6177"
     d="m 448.61251,146.94877 1.62938,0 0,-25.09243 1.62937,0 0,25.25537 2.60701,0"
     style="fill:none;fill-rule:evenodd;stroke:#000000;stroke-width:0.92171556px;stroke-linecap:butt;stroke-linejoin:miter;stroke-opacity:1" /><path
     inkscape:connector-curvature="0"
     id="path6179"
     d="m 448.81498,197.21022 1.62938,0 0,-25.09243 1.62937,0 0,25.25537 2.60701,0"
     style="fill:none;fill-rule:evenodd;stroke:#000000;stroke-width:0.92171556px;stroke-linecap:butt;stroke-linejoin:miter;stroke-opacity:1" /><path
     style="fill:none;fill-rule:evenodd;stroke:#000000;stroke-width:0.92171556px;stroke-linecap:butt;stroke-linejoin:miter;stroke-opacity:1"
     d="m 448.61251,247.68567 1.62938,0 0,-25.09243 1.62937,0 0,25.25537 2.60701,0"
     id="path6181"
     inkscape:connector-curvature="0" /><path
     style="fill:none;fill-rule:evenodd;stroke:#000000;stroke-width:0.92171556px;stroke-linecap:butt;stroke-linejoin:miter;stroke-opacity:1"
     d="m 448.81498,297.94712 1.62938,0 0,-25.09243 1.62937,0 0,25.25537 2.60701,0"
     id="path6183"
     inkscape:connector-curvature="0" /><path
     style="fill:none;fill-rule:evenodd;stroke:#000000;stroke-width:0.92171556px;stroke-linecap:butt;stroke-linejoin:miter;stroke-opacity:1"
     d="m 448.61251,347.88265 1.62938,0 0,-25.09243 1.62937,0 0,25.25537 2.60701,0"
     id="path6185"
     inkscape:connector-curvature="0" /><path
     style="fill:none;fill-rule:evenodd;stroke:#000000;stroke-width:0.92171556px;stroke-linecap:butt;stroke-linejoin:miter;stroke-opacity:1"
     d="m 448.81498,398.1441 1.62938,0 0,-25.09243 1.62937,0 0,25.25537 2.60701,0"
     id="path6187"
     inkscape:connector-curvature="0" /><path
     inkscape:connector-curvature="0"
     id="path6189"
     d="m 448.61251,448.61955 1.62938,0 0,-25.09243 1.62937,0 0,25.25537 2.60701,0"
     style="fill:none;fill-rule:evenodd;stroke:#000000;stroke-width:0.92171556px;stroke-linecap:butt;stroke-linejoin:miter;stroke-opacity:1" /></svg>