<?xml version="1.0" encoding="UTF-8" standalone="no"?>
<!-- Created with Inkscape (http://www.inkscape.org/) -->

<svg
   xmlns:dc="http://purl.org/dc/elements/1.1/"
   xmlns:cc="http://creativecommons.org/ns#"
   xmlns:rdf="http://www.w3.org/1999/02/22-rdf-syntax-ns#"
   xmlns:svg="http://www.w3.org/2000/svg"
   xmlns="http://www.w3.org/2000/svg"
   xmlns:sodipodi="http://sodipodi.sourceforge.net/DTD/sodipodi-0.dtd"
   xmlns:inkscape="http://www.inkscape.org/namespaces/inkscape"
   width="204.40222mm"
   height="130.01607mm"
   viewBox="0 0 724.25984 460.68685"
   id="svg2"
   version="1.1"
   inkscape:version="0.91 r13725"
   sodipodi:docname="skooppimittaus.svg">
  <sodipodi:namedview
     id="base"
     pagecolor="#ffffff"
     bordercolor="#666666"
     borderopacity="1.0"
     inkscape:pageopacity="0.0"
     inkscape:pageshadow="2"
     inkscape:zoom="0.98994949"
     inkscape:cx="393.49288"
     inkscape:cy="220.98278"
     inkscape:document-units="px"
     inkscape:current-layer="layer1"
     showgrid="false"
     inkscape:window-width="1362"
     inkscape:window-height="713"
     inkscape:window-x="0"
     inkscape:window-y="28"
     inkscape:window-maximized="1"
     fit-margin-top="5"
     fit-margin-left="5"
     fit-margin-right="5"
     fit-margin-bottom="5" />
  <defs
     id="defs4">
    <marker
       inkscape:stockid="Arrow1Mend"
       orient="auto"
       refY="0"
       refX="0"
       id="marker5220"
       style="overflow:visible"
       inkscape:isstock="true">
      <path
         id="path5222"
         d="M 0,0 5,-5 -12.5,0 5,5 0,0 Z"
         style="fill:#000000;fill-opacity:1;fill-rule:evenodd;stroke:#000000;stroke-width:1pt;stroke-opacity:1"
         transform="matrix(-0.4,0,0,-0.4,-4,0)"
         inkscape:connector-curvature="0" />
    </marker>
    <marker
       inkscape:stockid="Arrow1Mstart"
       orient="auto"
       refY="0"
       refX="0"
       id="marker5180"
       style="overflow:visible"
       inkscape:isstock="true">
      <path
         id="path5182"
         d="M 0,0 5,-5 -12.5,0 5,5 0,0 Z"
         style="fill:#000000;fill-opacity:1;fill-rule:evenodd;stroke:#000000;stroke-width:1pt;stroke-opacity:1"
         transform="matrix(0.4,0,0,0.4,4,0)"
         inkscape:connector-curvature="0" />
    </marker>
    <marker
       inkscape:stockid="Arrow1Mend"
       orient="auto"
       refY="0"
       refX="0"
       id="Arrow1Mend"
       style="overflow:visible"
       inkscape:isstock="true">
      <path
         id="path4303"
         d="M 0,0 5,-5 -12.5,0 5,5 0,0 Z"
         style="fill:#000000;fill-opacity:1;fill-rule:evenodd;stroke:#000000;stroke-width:1pt;stroke-opacity:1"
         transform="matrix(-0.4,0,0,-0.4,-4,0)"
         inkscape:connector-curvature="0" />
    </marker>
    <marker
       inkscape:stockid="Arrow1Mstart"
       orient="auto"
       refY="0"
       refX="0"
       id="Arrow1Mstart"
       style="overflow:visible"
       inkscape:isstock="true">
      <path
         id="path4300"
         d="M 0,0 5,-5 -12.5,0 5,5 0,0 Z"
         style="fill:#000000;fill-opacity:1;fill-rule:evenodd;stroke:#000000;stroke-width:1pt;stroke-opacity:1"
         transform="matrix(0.4,0,0,0.4,4,0)"
         inkscape:connector-curvature="0" />
    </marker>
    <marker
       inkscape:stockid="Arrow2Lstart"
       orient="auto"
       refY="0"
       refX="0"
       id="Arrow2Lstart"
       style="overflow:visible"
       inkscape:isstock="true">
      <path
         id="path4312"
         style="fill:#000000;fill-opacity:1;fill-rule:evenodd;stroke:#000000;stroke-width:0.625;stroke-linejoin:round;stroke-opacity:1"
         d="M 8.7185878,4.0337352 -2.2072895,0.01601326 8.7185884,-4.0017078 c -1.7454984,2.3720609 -1.7354408,5.6174519 -6e-7,8.035443 z"
         transform="matrix(1.1,0,0,1.1,1.1,0)"
         inkscape:connector-curvature="0" />
    </marker>
  </defs>
  <metadata
     id="metadata7">
    <rdf:RDF>
      <cc:Work
         rdf:about="">
        <dc:format>image/svg+xml</dc:format>
        <dc:type
           rdf:resource="http://purl.org/dc/dcmitype/StillImage" />
        <dc:title></dc:title>
      </cc:Work>
    </rdf:RDF>
  </metadata>
  <g
     id="layer1"
     inkscape:groupmode="layer"
     inkscape:label="Layer 1"
     transform="translate(-23.629782,-33.134844)">
    <rect
       y="52.362206"
       x="42.857143"
       height="422.85715"
       width="422.85715"
       id="rect3338"
       style="fill:#ffffff;fill-opacity:1;stroke:#000000;stroke-width:1.77165353;stroke-miterlimit:4;stroke-dasharray:none;stroke-opacity:1" />
    <path
       id="path3344"
       style="fill:none;fill-opacity:0.75;fill-rule:evenodd;stroke:#000000;stroke-width:1pt;stroke-linecap:butt;stroke-linejoin:miter;stroke-opacity:1"
       d="m 41.971317,51.476379 0,424.628801 m 40,-424.628801 0,424.628801 m 40.000003,-424.628801 0,424.628801 m 40,-424.628801 0,424.628801 m 40,-424.628801 0,424.628801 m 40,-424.628801 0,424.628801 m 40,-424.628801 0,424.628801 m 40,-424.628801 0,424.628801 m 40,-424.628801 0,424.628801 m 40,-424.628801 0,424.628801 m 40,-424.628801 0,424.628801 M 41.971317,51.476379 l 424.628803,0 m -424.628803,40 424.628803,0 m -424.628803,40.000001 424.628803,0 m -424.628803,40 424.628803,0 m -424.628803,40 424.628803,0 m -424.628803,40 424.628803,0 m -424.628803,40 424.628803,0 m -424.628803,40 424.628803,0 m -424.628803,40 424.628803,0 m -424.628803,40 424.628803,0 m -424.628803,40 424.628803,0"
       inkscape:connector-curvature="0" />
    <path
       id="path3480"
       title="sin(x)"
       d="m 47.047169,241.5514 c 0.139983,-0.0445 0.279975,-1.45589 0.419959,-1.50665 0.139982,-0.0508 0.279975,-1.44764 0.419957,-1.50474 0.139983,-0.0571 0.279976,-1.43914 0.419959,-1.50259 0.139982,-0.0635 0.279975,-1.4304 0.419957,-1.50021 0.139984,-0.0698 0.279976,-1.42141 0.419959,-1.49756 0.139982,-0.0762 0.279975,-1.41223 0.419958,-1.49472 0.139993,-0.0825 0.279975,-1.40277 0.419957,-1.49161 0.139994,-0.0888 0.279976,-1.39309 0.419959,-1.48828 0.139992,-0.0952 0.279975,-1.38317 0.419958,-1.4847 0.139993,-0.10154 0.279975,-1.37304 0.419958,-1.48091 0.139992,-0.10788 0.279976,-1.36264 0.419958,-1.47686 0.139993,-0.11423 0.279975,-1.35203 0.419958,-1.47259 0.139993,-0.12056 0.279976,-1.34117 0.419958,-1.46809 0.139993,-0.12691 0.279976,-1.33008 0.419969,-1.46333 0.139982,-0.13327 0.279964,-1.31878 0.419957,-1.45838 0.139983,-0.13961 0.279966,-1.30722 0.419958,-1.45317 0.139983,-0.14594 0.279965,-1.29545 0.419959,-1.44775 0.139982,-0.15228 0.279965,-1.28342 0.419957,-1.44207 0.139984,-0.15864 0.279966,-1.27121 0.419959,-1.43619 0.139982,-0.16499 0.279965,-1.25876 0.419958,-1.43008 0.139983,-0.17133 0.279965,-1.24606 0.419958,-1.42374 0.139982,-0.17767 0.279976,-1.23313 0.419958,-1.41716 0.139982,-0.18402 0.279975,-1.22001 0.419957,-1.41038 0.139984,-0.19037 0.279976,-1.20664 0.419959,-1.40336 0.139982,-0.19671 0.279976,-1.19306 0.419958,-1.39613 0.139983,-0.20305 0.279975,-1.17925 0.419958,-1.38867 0.139983,-0.2094 0.279976,-1.16523 0.419958,-1.38098 0.139983,-0.21576 0.279975,-1.151 0.419959,-1.3731 0.139982,-0.2221 0.279975,-1.13654 0.419957,-1.36498 0.139994,-0.22844 0.279976,-1.12186 0.419958,-1.35665 0.139993,-0.23479 0.279975,-1.10698 0.419959,-1.34812 0.139992,-0.24113 0.279975,-1.09187 0.419957,-1.33935 0.139993,-0.24748 0.279976,-1.07655 0.419959,-1.33038 0.139992,-0.25382 0.279975,-1.06103 0.419957,-1.3212 0.139994,-0.26017 0.279976,-1.0453 0.419959,-1.31182 0.139992,-0.26652 0.279976,-1.02935 0.419958,-1.30221 0.139993,-0.27287 0.279975,-1.01321 0.419968,-1.29242 0.139983,-0.27921 0.279965,-0.99686 0.419958,-1.28241 0.139982,-0.28555 0.279965,-0.98031 0.419958,-1.2722 0.139983,-0.2919 0.279965,-0.96356 0.419958,-1.2618 0.139982,-0.29824 0.279966,-0.94659 0.419958,-1.25118 0.139983,-0.30459 0.279965,-0.92944 0.419959,-1.24037 0.139982,-0.31094 0.279965,-0.91209 0.419957,-1.22937 0.139983,-0.31727 0.279966,-0.89454 0.419959,-1.21816 0.139982,-0.32363 0.279975,-0.8768 0.419957,-1.20678 0.139983,-0.32998 0.279976,-0.85887 0.419958,-1.19519 0.139983,-0.33633 0.279976,-0.84076 0.419959,-1.18343 0.139982,-0.34266 0.279975,-0.82245 0.419957,-1.17146 0.139984,-0.34901 0.279976,-0.80396 0.419959,-1.15931 0.139982,-0.35536 0.279975,-0.78529 0.419958,-1.147 0.139983,-0.3617 0.279975,-0.76643 0.419958,-1.13448 0.139982,-0.36804 0.279976,-0.7474 0.419958,-1.12179 0.139982,-0.37439 0.279975,-0.72818 0.419958,-1.10893 0.139993,-0.38073 0.279975,-0.70879 0.419958,-1.09587 0.139992,-0.38708 0.279976,-0.68924 0.419958,-1.08267 0.139993,-0.39343 0.279975,-0.66951 0.419958,-1.06928 0.139993,-0.39978 0.279976,-0.64961 0.419958,-1.05573 0.139993,-0.40611 0.279976,-0.62954 0.419959,-1.042 0.139992,-0.41247 0.279975,-0.60931 0.419957,-1.02812 0.139994,-0.41881 0.279976,-0.5889 0.419958,-1.01406 0.139993,-0.42516 0.279975,-0.56835 0.419969,-0.99986 0.139982,-0.4315 0.279965,-0.54763 0.419957,-0.98548 0.139983,-0.43785 0.279966,-0.52677 0.419959,-0.97096 0.139982,-0.4442 0.279965,-0.50574 0.419958,-0.95628 0.139983,-0.45054 0.279965,-0.48456 0.419958,-0.94145 0.139982,-0.45688 0.279966,-0.46324 0.419958,-0.92647 0.139983,-0.46323 0.279965,-0.44178 0.419958,-0.91135 0.139983,-0.46958 0.279965,-0.42016 0.419958,-0.89608 0.139982,-0.47591 0.279976,-0.39839 0.419958,-0.88066 0.139983,-0.48227 0.279975,-0.3765 0.419958,-0.86511 0.139983,-0.48862 0.279976,-0.35447 0.419958,-0.84944 0.139983,-0.49495 0.279975,-0.33229 0.419959,-0.8336 0.139982,-0.5013 0.279975,-0.30999 0.419957,-0.81765 0.139983,-0.50764 0.279976,-0.28757 0.419959,-0.80157 0.139982,-0.51399 0.279975,-0.26501 0.419958,-0.78534 0.139982,-0.52035 0.279975,-0.24235 0.419957,-0.76903 0.139993,-0.52668 0.279976,-0.21953 0.419959,-0.75257 0.139992,-0.53303 0.279975,-0.19661 0.419957,-0.73599 0.139994,-0.53938 0.279976,-0.17357 0.419959,-0.7193 0.139992,-0.54572 0.279975,-0.15042 0.419958,-0.70249 0.139993,-0.55207 0.279975,-0.12716 0.419958,-0.68558 0.139993,-0.55841 0.279976,-0.10379 0.419958,-0.66854 0.139992,-0.56477 0.279975,-0.0803 0.419958,-0.65143 0.139993,-0.5711 0.279975,-0.0568 0.419968,-0.63418 0.139982,-0.57746 0.279966,-0.033 0.419958,-0.61686 0.139983,-0.5838 0.279965,-0.01 0.419959,-0.59941 0.139982,-0.59015 0.279965,0.0146 0.419957,-0.5819 0.139983,-0.59649 0.279966,0.0385 0.419959,-0.56427 0.139982,-0.60284 0.279962,0.0626 0.419952,-0.54657 0.13999,-0.60918 0.27997,0.0867 0.41996,-0.52877 0.13999,-0.61552 0.27997,0.11098 0.41996,-0.51089 0.13998,-0.62188 0.27998,0.13528 0.41996,-0.49294 0.13998,-0.62821 0.27997,0.15967 0.41996,-0.47489 0.13998,-0.63456 0.27997,0.18412 0.41996,-0.45679 0.13998,-0.64091 0.27997,0.20866 0.41995,-0.4386 0.13999,-0.64725 0.27998,0.23325 0.41996,-0.42034 0.13998,-0.6536 0.27998,0.25792 0.41996,-0.40203 0.13998,-0.65994 0.27997,0.28265 0.41996,-0.38364 0.13998,-0.66629 0.27997,0.30744 0.41996,-0.36519 0.13999,-0.67265 0.27997,0.33228 0.41995,-0.3467 0.14,-0.67898 0.27998,0.35719 0.41996,-0.32814 0.13999,-0.68533 0.27998,0.38215 0.41996,-0.30953 0.13999,-0.69167 0.27998,0.40716 0.41996,-0.29086 0.13999,-0.69803 0.27997,0.4322 0.41996,-0.27216 0.13999,-0.70437 0.27997,0.45728 0.41995,-0.25343 0.14,-0.7107 0.27998,0.48243 0.41996,-0.23462 0.13999,-0.71706 0.27998,0.50759 0.41997,-0.21581 0.13998,-0.7234 0.27997,0.5328 0.41996,-0.19695 0.13998,-0.72974 0.27996,0.55804 0.41996,-0.17805 0.13998,-0.7361 0.27996,0.5833 0.41995,-0.15914 0.13999,-0.74244 0.27997,0.60859 0.41996,-0.14019 0.13999,-0.74879 0.27997,0.6339 0.41996,-0.12123 0.13998,-0.75513 0.27997,0.65922 0.41996,-0.10225 0.13998,-0.76147 0.27996,0.68458 0.41996,-0.0833 0.13998,-0.76781 0.27997,0.70994 0.41995,-0.0642 0.13999,-0.77417 0.27998,0.7353 0.41996,-0.0452 0.13999,-0.78052 0.27998,0.76068 0.41996,-0.0261 0.13998,-0.78685 0.27998,0.78607 0.41996,-0.007 0.13998,-0.7932 0.27997,0.81145 0.41996,0.0119 0.13998,-0.79955 0.27997,0.83683 0.41995,0.0309 0.13999,-0.80589 0.27998,0.8622 0.41996,0.0499 0.13999,-0.81223 0.27998,0.88757 0.41996,0.069 0.13999,-0.81858 0.27998,0.91293 0.41996,0.088 0.13999,-0.82493 0.27997,0.93827 0.41996,0.10699 0.13999,-0.83128 0.27997,0.96359 0.41996,0.12597 0.13999,-0.83762 0.27997,0.9889 0.41995,0.14493 0.139998,-0.84396 0.279978,1.01419 0.419958,0.16387 0.13999,-0.85031 0.27998,1.03945 0.41996,0.18278 0.13999,-0.85665 0.27998,1.06468 0.41996,0.20166 0.13999,-0.863 0.27997,1.08988 0.41997,0.22052 0.13998,-0.86934 0.27996,1.11503 0.41995,0.23934 0.13999,-0.8757 0.27997,1.14015 0.41996,0.2581 0.13998,-0.88204 0.27997,1.16523 0.41996,0.27685 0.13997,-0.88839 0.27996,1.19027 0.41995,0.29553 0.13998,-0.89473 0.27996,1.21527 0.41996,0.31419 0.13998,-0.90108 0.27996,1.2402 0.41995,0.33278 0.13999,-0.90743 0.27997,1.2651 0.41996,0.35133 0.13998,-0.91378 0.27998,1.28993 0.41996,0.36981 0.13998,-0.92012 0.27997,1.3147 0.41996,0.38824 0.13998,-0.92646 0.27997,1.33942 0.41995,0.40661 0.13999,-0.9328 0.27998,1.36407 0.41996,0.42492 0.13998,-0.93915 0.27998,1.38865 0.41997,0.44315 0.13998,-0.9455 0.27997,1.41317 0.41996,0.46132 0.13998,-0.95184 0.27997,1.43761 0.41995,0.47942 0.13999,-0.95819 0.27998,1.46196 0.41996,0.49743 0.13998,-0.96454 0.27998,1.48625 0.41996,0.51537 0.13999,-0.97088 0.27997,1.51045 0.41996,0.53323 0.13999,-0.97724 0.27997,1.53457 0.41995,0.55099 0.14,-0.98356 0.27998,1.55861 0.41996,0.5687 0.13999,-0.98992 0.27998,1.58255 0.41996,0.58628 0.13999,-0.99627 0.27997,1.6064 0.41995,0.60379 0.14,-1.00262 0.27998,1.63014 0.41996,0.62119 0.13999,-1.00895 0.27998,1.6538 0.41996,0.6385 0.13999,-1.0153 0.27997,1.67736 0.41997,0.65572 0.13998,-1.02165 0.27996,1.70081 0.41995,0.67281 0.13999,-1.02799 0.27997,1.72416 0.41996,0.68982 0.13998,-1.03434 0.27997,1.74739 0.41996,0.70671 0.13998,-1.04069 0.27997,1.7705 0.41997,0.72347 0.13998,-1.04702 0.27996,1.79352 0.41995,0.74015 0.13999,-1.05338 0.27997,1.81642 0.41996,0.75669 0.13998,-1.05972 0.27997,1.83918 0.41996,0.77312 0.13998,-1.06607 0.27997,1.86184 0.41996,0.78943 0.13998,-1.07242 0.27997,1.88435 0.41995,0.80559 0.13999,-1.07876 0.27998,1.90675 0.41996,0.82165 0.13998,-1.0851 0.27998,1.92902 0.41996,0.83757 0.13998,-1.09145 0.27997,1.95116 0.41996,0.85337 0.13998,-1.0978 0.27997,1.97315 0.41995,0.86901 0.13999,-1.10414 0.27998,1.99502 0.41996,0.88453 0.13998,-1.11048 0.27998,2.01674 0.41996,0.89991 0.13999,-1.11683 0.27997,2.03832 0.41996,0.91514 0.13999,-1.12317 0.27997,2.05975 0.41995,0.93023 0.14,-1.12952 0.27998,2.08104 0.41996,0.94517 0.13999,-1.13587 0.27998,2.10218 0.41996,0.95996 0.14,-1.14221 0.27998,2.12316 0.41997,0.97461 0.13999,-1.14855 0.27997,2.144 0.41995,0.98909 0.14,-1.1549 0.27998,2.16467 0.41996,1.00342 0.13999,-1.16125 0.27998,2.18519 0.41997,1.01759 0.13998,-1.16759 0.27996,2.20556 0.41996,1.03161 0.13998,-1.17394 0.27996,2.22574 0.41995,1.04545 0.13999,-1.18029 0.27997,2.24576 0.41996,1.05913 0.13998,-1.18663 0.27997,2.26562 0.41996,1.07264 0.13998,-1.19298 0.27996,2.28531 0.41996,1.08599 0.13998,-1.19932 0.27996,2.30483 0.41995,1.09916 0.13999,-1.20567 0.27997,2.32417 0.41996,1.11216 0.13998,-1.21202 0.27998,2.34334 0.41996,1.12497 0.13998,-1.21836 0.27997,2.36234 0.41996,1.13763 0.13998,-1.2247 0.27997,2.38114 0.41995,1.15009 0.13999,-1.23105 0.27998,2.39977 0.41996,1.16237 0.13998,-1.2374 0.27997,2.41822 0.41996,1.17447 0.13999,-1.24374 0.27998,2.43647 0.41996,1.18639 0.13999,-1.25009 0.27998,2.45454 0.41996,1.1981 0.13998,-1.25644 0.27998,2.47243 0.41996,1.20965 0.13999,-1.26278 0.27997,2.4901 0.41996,1.22098 0.13999,-1.26913 0.27997,2.5076 0.41995,1.23214 0.14,-1.27548 0.27998,2.52491 0.41996,1.24309 0.13999,-1.28182 0.27998,2.54201 0.41996,1.25386 0.13999,-1.28818 0.27997,2.5589 0.41996,1.2644 0.13999,-1.2945 0.27997,2.57563 0.41995,1.27478 0.14,-1.30085 0.27998,2.59212 0.41996,1.28493 0.13999,-1.3072 0.27998,2.60843 0.41997,1.29488 0.13998,-1.31354 0.27996,2.62453 0.41996,1.30465 0.13998,-1.3199 0.27996,2.64041 0.41995,1.31418 0.13999,-1.32625 0.27997,2.65609 0.41996,1.32351 0.13998,-1.33258 0.27997,2.67158 0.41996,1.33265 0.13998,-1.33893 0.27996,2.68683 0.41997,1.34156 0.13998,-1.34528 0.27996,2.70189 0.41995,1.35026 0.13999,-1.35161 0.27997,2.71672 0.41996,1.35876 0.13998,-1.35796 0.27998,2.73134 0.41996,1.36703 0.13998,-1.36431 0.27997,2.74575 0.41996,1.37509 0.13998,-1.37066 0.27997,2.75993 0.41995,1.38293 0.13999,-1.377 0.27998,2.7739 0.41996,1.39055 0.13998,-1.38335 0.27998,2.78765 0.41996,1.39796 0.13998,-1.3897 0.27997,2.80117 0.41996,1.40513 0.13998,-1.39603 0.27997,2.81448 0.41995,1.4121 0.13999,-1.40239 0.27998,2.82756 0.41996,1.41883 0.13999,-1.40873 0.27998,2.84041 0.41996,1.42534 0.13999,-1.41507 0.27997,2.85305 0.41996,1.43163 0.13999,-1.42143 0.27997,2.86545 0.41995,1.43769 0.14,-1.42778 0.27998,2.87763 0.41996,1.4435 0.13999,-1.4341 0.27998,2.88959 0.41996,1.44913 0.13999,-1.44046 0.27998,2.9013 0.41997,1.45449 0.13999,-1.4468 0.27997,2.91279 0.41995,1.45964 0.14,-1.45315 0.27998,2.92404 0.41997,1.46455 0.13998,-1.4595 0.27997,2.93507 0.41996,1.46923 0.13998,-1.46584 0.27996,2.94586 0.41996,1.47367 0.13998,-1.47218 0.27996,2.95643 0.41995,1.4779 0.13998,-1.47853 0.27997,2.96675 0.41996,1.48188 0.13998,-1.48487 0.27996,2.97684 0.41996,1.48562 0.13998,-1.49122 0.27996,2.9867 0.41995,1.48914 0.13999,-1.49758 0.27997,2.99632 0.41996,1.49241 0.13998,-1.50392 0.27998,3.0057 0.41996,1.49544 0.13998,-1.51025 0.27997,3.01487 0.41996,1.49826 0.13998,-1.51661 0.27997,3.02377 0.41995,1.50082 0.13999,-1.52295 0.27998,3.03244 0.41996,1.50315 0.13998,-1.52929 0.27998,3.04088 0.41996,1.50523 0.13998,-1.53563 0.27997,3.04909 0.41996,1.5071 0.13999,-1.54199 0.27998,3.05704 0.41996,1.5087 0.13999,-1.54833 0.27998,3.06477 0.41996,1.51009 0.13999,-1.55468 0.27998,3.07225 0.41996,1.51122 0.13999,-1.56102 0.27997,3.07949 0.41996,1.51212 0.13999,-1.56737 0.27997,3.0865 0.41995,1.51277 0.14,-1.5737 0.27998,3.09327 0.41996,1.5132 0.13999,-1.58006 0.27998,3.09979 0.41996,1.51338 0.13999,-1.58641 0.27997,3.10606 0.41996,1.5133 0.13999,-1.59274 0.27997,3.11212 0.41995,1.51302 0.14,-1.5991 0.27998,3.11792 0.41996,1.51248 0.13999,-1.60544 0.27998,3.12349 0.41997,1.51171 0.13998,-1.6118 0.27996,3.12881 0.41996,1.51067 0.13998,-1.61813 0.27996,3.13391 0.41995,1.50943 0.13999,-1.62448 0.27997,3.13876 0.41996,1.50793 0.13998,-1.63083 0.27997,3.14336 0.41996,1.5062 0.13998,-1.63718 0.27996,3.14773 0.41996,1.50422 0.13999,-1.64352 0.27997,3.15187 0.41996,1.50201 0.13999,-1.64986 0.27997,3.15578 0.41996,1.49957 0.13998,-1.65621 0.27998,3.15943 0.41996,1.49688 0.13998,-1.66255 0.27997,3.16286 0.41996,1.49396 0.13998,-1.66891 0.27997,3.16604 0.41995,1.4908 0.13999,-1.67524 0.27998,3.169 0.41996,1.48741 0.13998,-1.68159 0.27998,3.17171 0.41996,1.48378 0.13998,-1.68794 0.27997,3.17419 0.41996,1.47991 0.13998,-1.69428 0.27997,3.17645 0.41995,1.47582 0.13999,-1.70063 0.27998,3.17846 0.41996,1.47149 0.13999,-1.70698 0.27998,3.18023 0.41996,1.46691 0.13999,-1.71332 0.27997,3.18179 0.41995,1.46213 0.14,-1.71967 0.27998,3.18309 0.41996,1.45708 0.13999,-1.726 0.27998,3.1842 0.41996,1.45184 0.13999,-1.73236 0.27997,3.18505 0.41996,1.44635 0.13999,-1.73871 0.27997,3.18567 0.41996,1.44063 0.14,-1.74505 0.27998,3.18607 0.41996,1.43469 0.13999,-1.7514 0.27998,3.18625 0.41997,1.42851 0.13998,-1.75774 0.27996,3.18619 0.41996,1.42211 0.13998,-1.76408 0.27996,3.18592 0.41995,1.41549 0.13999,-1.77043 0.27997,3.18542 0.41996,1.40865 0.13998,-1.77678 0.27997,3.18469 0.41996,1.40157 0.13998,-1.78313 0.27996,3.18374 0.41996,1.39428 0.13998,-1.78947 0.27996,3.18258 0.41995,1.38677 0.13999,-1.79581 0.27997,3.18119 0.41996,1.37903 0.13998,-1.80215 0.27998,3.17959 0.41996,1.37109 0.13998,-1.80851 0.27997,3.17777 0.41996,1.36291 0.13998,-1.81484 0.27997,3.17574 0.41995,1.35455 0.13999,-1.8212 0.27998,3.17347 0.41996,1.34594 0.13998,-1.82755 0.27998,3.17101 0.41996,1.33712 0.13998,-1.83388 0.27997,3.16834 0.41996,1.32811 0.13998,-1.84022 0.27998,3.16546 0.41996,1.31888 0.13999,-1.84657 0.27998,3.16236 0.41996,1.30943 0.13999,-1.85292 0.27998,3.15906 0.41996,1.2998 0.13999,-1.85927 0.27997,3.15554 0.41996,1.28993 0.13999,-1.86562 0.27997,3.15184 0.41995,1.27988 0.14,-1.87197 0.27998,3.14792 0.41996,1.26961 0.13999,-1.8783 0.27998,3.14381 0.41996,1.25916 0.13999,-1.88465 0.27997,3.1395 0.41996,1.24849 0.13999,-1.89098 0.27997,3.13499 0.41995,1.23765 0.14,-1.89735 0.27998,3.13027 0.41997,1.22658 0.13998,-1.90369 0.27997,3.12537 0.41996,1.21534 0.13998,-1.91003 0.27996,3.12028 0.41996,1.2039 0.13998,-1.91638 0.27996,3.115 0.41995,1.19226 0.13999,-1.92272 0.27997,3.10953 0.41996,1.18046 0.13998,-1.92908 0.27997,3.10386 0.41996,1.16844 0.13998,-1.93541 0.27996,3.09802 0.41996,1.15626 0.13999,-1.94177 0.27997,3.09198 0.41996,1.14387 0.13998,-1.9481 0.27998,3.08578 0.41996,1.13133 0.13998,-1.95446 0.27997,3.07939 0.41996,1.11858 0.13998,-1.96079 0.27997,3.07284 0.41995,1.10569 0.13999,-1.96714 0.27998,3.06609 0.41996,1.09259 0.13998,-1.97348 0.27998,3.05918 0.41996,1.07934 0.13998,-1.97983 0.27997,3.0521 0.41996,1.06591 0.13998,-1.98619 0.27997,3.04484 0.41995,1.05232 0.13999,-1.99254 0.27998,3.03741 0.41996,1.03854 0.13999,-1.99887 0.27998,3.02984 0.41996,1.02461 0.13999,-2.00521 0.27997,3.02209 0.41996,1.01053 0.13999,-2.01157 0.27997,3.01418 0.41995,0.99627 0.14,-2.0179 0.27998,3.00613 0.41996,0.98187 0.13999,-2.02425 0.27998,2.99791 0.41996,0.96731 0.13999,-2.03061 0.27997,2.98953 0.41996,0.95259 0.13999,-2.03695 0.27997,2.98101 0.41996,0.93772 0.14,-2.0433 0.27998,2.97234 0.41997,0.9227 0.13998,-2.04964 0.27997,2.96352 0.41996,0.90754 0.13998,-2.05598 0.27996,2.95456 0.41996,0.89223 0.13998,-2.06232 0.27996,2.94547 0.41995,0.8768 0.13999,-2.06867 0.27997,2.93622 0.41996,0.8612 0.13998,-2.07502 0.27997,2.92685 0.41996,0.84549 0.13998,-2.08137 0.27996,2.91734 0.41996,0.82962 0.13998,-2.08771 0.27996,2.9077 0.41995,0.81364 0.13999,-2.09405 0.27998,2.89793 0.41996,0.79753 0.13998,-2.1004 0.27998,2.88804 0.41996,0.78129 0.13998,-2.10675 0.27997,2.87801 0.41996,0.76492 0.13998,-2.1131 0.27997,2.86787 0.41995,0.74842 0.13999,-2.11943 0.27998,2.85763 0.41996,0.73184 0.13998,-2.12579 0.27998,2.84723 0.41996,0.71511 0.13998,-2.13213 0.27997,2.83674 0.41996,0.69826 0.13998,-2.13847 0.27997,2.82616 0.41996,0.68134 0.14,-2.14483 0.27998,2.81544 0.41996,0.66428 0.13999,-2.15117 0.27998,2.80463 0.41996,0.64711 0.13999,-2.1575 0.27997,2.79373 0.41996,0.62986 0.13999,-2.16385 0.27997,2.78272 0.41995,0.61251 0.14,-2.1702 0.27998,2.7716 0.41996,0.59505 0.13999,-2.17655 0.27998,2.76039 0.41996,0.5775 0.13999,-2.1829 0.27997,2.74909 0.41995,0.55986 0.14,-2.18925 0.27998,2.73771 0.41997,0.54211 0.13998,-2.19558 0.27997,2.72625 0.41996,0.52432 0.13998,-2.20193 0.27996,2.71469 0.41996,0.50641 0.13998,-2.20828 0.27996,2.70306 0.41995,0.48843 0.13999,-2.21463 0.27997,2.69134 0.41996,0.47038 0.13998,-2.22098 0.27997,2.67956 0.41996,0.45224 0.13998,-2.22732 0.27996,2.6677 0.41996,0.43404 0.13998,-2.23365 0.27996,2.65578 0.41995,0.41578 0.13999,-2.24001 0.27998,2.64378 0.41997,0.39743 0.13998,-2.24635 0.27998,2.63174 0.41996,0.37904 0.13998,-2.2527 0.27997,2.61961 0.41996,0.36058 0.13998,-2.25905 0.27997,2.60744 0.41995,0.34206 0.13999,-2.2654 0.27998,2.59521 0.41996,0.32348 0.13998,-2.27173 0.27998,2.58295 0.41996,0.30487 0.13998,-2.27808 0.27997,2.57062 0.41996,0.28619 0.13998,-2.28442 0.27997,2.55825 0.41995,0.26749 0.13999,-2.29077 0.27998,2.54583 0.41996,0.24873 0.13999,-2.29713 0.27998,2.53338 0.41996,0.22991 0.13999,-2.30346 0.27997,2.52092 0.41996,0.2111 0.13999,-2.30981 0.27997,2.50839 0.41995,0.19223 0.14,-2.31615 0.27998,2.49582 0.41996,0.17333 0.13999,-2.3225 0.27998,2.48324 0.41996,0.1544 0.13999,-2.32884 0.27997,2.47064 0.41996,0.13546 0.13999,-2.33519 0.27997,2.45802 0.41995,0.11648 0.14001,-2.34154 0.27999,2.44537 0.41998,0.0975 0.13998,-2.34789 0.27997,2.43271 0.41996,0.0785 0.13998,-2.35422 0.27996,2.42005 0.41996,0.0594 0.13998,-2.36056 0.27996,2.40737 0.41995,0.0404 0.13999,-2.36692 0.27997,2.39468 0.41996,0.0214 0.13998,-2.37326 0.27997,2.38199 0.41996,0.002 0.13998,-2.37961 0.27996,2.3693 0.41996,-0.0167 0.13998,-2.38595 0.27996,2.35661 0.41995,-0.0356 0.13999,-2.3923 0.27998,2.34393 0.41996,-0.0547 0.13998,-2.39865 0.27998,2.33126 0.41996,-0.0738 0.13998,-2.40499 0.27997,2.31858 0.41996,-0.0928 0.13998,-2.41133 0.27997,2.30595 0.41995,-0.11174 0.13999,-2.41768 0.27998,2.29332 0.41996,-0.13071 0.13998,-2.42403 0.27997,2.2807 0.41996,-0.14967 0.13998,-2.43037 0.27997,2.26812 0.41995,-0.1686 0.13999,-2.43672 0.27998,2.25556 0.41997,-0.18751 0.13999,-2.44306 0.27998,2.24304 0.41996,-0.20638 0.13999,-2.44941 0.27997,2.23054 0.41996,-0.22522 0.13999,-2.45575 0.27997,2.21807 0.41995,-0.24403 0.14,-2.46211 0.27998,2.20565 0.41996,-0.2628 0.13999,-2.46844 0.27998,2.19328 0.41996,-0.28151 0.13999,-2.4748 0.27997,2.18093 0.41996,-0.30021 0.13999,-2.48114 0.27997,2.16865 0.41995,-0.31884 0.14,-2.48748 0.27998,2.15641 0.41997,-0.33742 0.13998,-2.49383 0.27997,2.14423 0.41996,-0.35595 0.13998,-2.50019 0.27996,2.13209 0.41996,-0.37442 0.13998,-2.50653 0.27996,2.12002 0.41995,-0.39285 0.13999,-2.51286 0.27997,2.10802 0.41996,-0.41119 0.13998,-2.51922 0.27997,2.09607 0.41996,-0.42948 0.13998,-2.52556 0.27996,2.0842 0.41996,-0.4477 0.13998,-2.53191 0.27996,2.07239 0.41995,-0.46586 0.13999,-2.53824 0.27998,2.06067 0.41997,-0.48392 0.13998,-2.54459 0.27998,2.04901 0.41996,-0.50192 0.13998,-2.55095 0.27997,2.03744 0.41996,-0.51985 0.13998,-2.55729 0.27997,2.02595 0.41995,-0.53768 0.13999,-2.56363 0.27998,2.01455 0.41996,-0.55543 0.13998,-2.56998 0.27998,2.00323 0.41996,-0.57309 0.13998,-2.57632 0.27997,1.99199 0.41996,-0.59067 0.13998,-2.58268 0.27997,1.98087 0.41995,-0.60815 0.14,-2.58901 0.27998,1.96983 0.41996,-0.62552 0.13999,-2.59538 0.27998,1.95888 0.41996,-0.64283 0.13999,-2.6017 0.27997,1.94806 0.41996,-0.65999 0.13999,-2.60805 0.27997,1.93731 0.41995,-0.67708 0.14,-2.6144 0.27998,1.92669 0.41996,-0.69405 0.13999,-2.62075 0.27998,1.91618 0.41996,-0.71091 0.13999,-2.62709 0.27997,1.90577 0.41996,-0.72766 0.13999,-2.63344 0.27997,1.89549 0.41996,-0.74429 0.13999,-2.63978 0.27998,1.88532 0.41997,-0.76081 0.13998,-2.64613 0.27997,1.87527 0.41996,-0.77721 0.13998,-2.65247 0.27996,1.86535 0.41996,-0.79348 0.13998,-2.65881 0.27996,1.85555 0.41995,-0.80962 0.13998,-2.66516 0.27997,1.84587 0.41996,-0.82564 0.13998,-2.67151 0.27996,1.83632 0.41996,-0.84153 0.13998,-2.67785 0.27996,1.82691 0.41995,-0.85729 0.13999,-2.6842 0.27998,1.81764 0.41996,-0.8729 0.13998,-2.69055 0.27998,1.8085 0.41996,-0.8884 0.13998,-2.69688 0.27997,1.79951 0.41996,-0.90373 0.13998,-2.70323 0.27997,1.79067 0.41995,-0.91892 0.13999,-2.70958 0.27998,1.78195 0.41996,-0.93398 0.13998,-2.71593 0.27998,1.77339 0.41996,-0.94889 0.13998,-2.72227 0.27997,1.76499 0.41996,-0.96363 0.13998,-2.72862 0.27997,1.75672 0.41995,-0.97824 0.14,-2.73497 0.27998,1.74862 0.41996,-0.9927 0.14,-2.7413 0.27999,1.74068 0.41997,-1.00697 0.13999,-2.74766 0.27997,1.73289 0.41996,-1.02111 0.13999,-2.75401 0.27997,1.72526 0.41995,-1.03508 0.14,-2.76035 0.27998,1.71781 0.41996,-1.04889 0.13999,-2.76669 0.27998,1.71052 0.41996,-1.06252 0.13999,-2.77303 0.27997,1.70339 0.41996,-1.07599 0.13999,-2.77938 0.27997,1.69643 0.41996,-1.0893 0.13999,-2.78573 0.27997,1.68965 0.41996,-1.10243 0.13998,-2.79207 0.27997,1.68304 0.41996,-1.11538 0.13998,-2.79842 0.27996,1.67661 0.41996,-1.12816 0.13998,-2.80476 0.27996,1.67036 0.41995,-1.14075 0.13999,-2.81112 0.27997,1.66428 0.41996,-1.15318 0.13998,-2.81746 0.27997,1.6584 0.41996,-1.16541 0.13998,-2.82381 0.27996,1.65268 0.41996,-1.17746 0.13998,-2.83016 0.27997,1.64715 0.41995,-1.18933 0.13999,-2.83651 0.27998,1.64182 0.41997,-1.20102 0.13998,-2.84284 0.27998,1.63669 0.41996,-1.2125 0.13998,-2.84918 0.27997,1.63174 0.41996,-1.22379 0.13998,-2.85553 0.27997,1.62699 0.41995,-1.23489 0.13999,-2.86188 0.27998,1.62242 0.41996,-1.2458 0.13998,-2.86823 0.27998,1.61806 0.41996,-1.25651 0.13998,-2.87457 0.27997,1.61389 0.41996,-1.26703 0.13998,-2.88091 0.27997,1.60994 0.41995,-1.27733 0.14,-2.88726 0.27998,1.60617 0.41996,-1.28744 0.13999,-2.8936 0.27998,1.60261 0.41996,-1.29734 0.13999,-2.89995 0.27997,1.59926 0.41995,-1.30704 0.14,-2.90631 0.27998,1.5961 0.41996,-1.31654 0.13999,-2.91264 0.27998,1.59317 0.41996,-1.32582 0.13999,-2.91899 0.27997,1.59044 0.41996,-1.33489 0.13999,-2.92534 0.27997,1.58792 0.41995,-1.34376 0.14,-2.93168 0.27998,1.58562 0.41997,-1.3524 0.13998,-2.93803 0.27998,1.58352 0.41997,-1.36085 0.13998,-2.94438 0.27996,1.58166 0.41996,-1.36907 0.13998,-2.95071 0.27996,1.58 0.41995,-1.37706 0.13999,-2.95707 0.27997,1.57855 0.41996,-1.38486 0.13998,-2.96341 0.27997,1.57733 0.41996,-1.39242 0.13998,-2.96976 0.27996,1.57633 0.41996,-1.39977 0.13998,-2.97611 0.27996,1.57554 0.41995,-1.40691 0.13999,-2.98243 0.27998,1.57499 0.41996,-1.4138 0.13998,-2.98878 0.27998,1.57467 0.41996,-1.42048 0.13998,-2.99513 0.27997,1.57456 0.41996,-1.42692 0.13998,-3.00149 0.27997,1.57465 0.41995,-1.43317 0.13999,-3.00783 0.27998,1.57501 0.41996,-1.43916 0.13998,-3.01418 0.27998,1.57558 0.41996,-1.44494 0.13998,-3.02052 0.27997,1.57638 0.41996,-1.45049 0.13998,-3.02686 0.27997,1.57741 0.41995,-1.4558 0.14,-3.03321 0.27998,1.57866 0.41996,-1.46089 0.13999,-3.03955 0.27999,1.58016 0.41997,-1.46573 0.13999,-3.0459 0.27997,1.58187 0.41996,-1.47037 0.13999,-3.05225 0.27997,1.58384 0.41995,-1.47475 0.14,-3.05859 0.27998,1.58602 0.41996,-1.47891 0.13999,-3.06495 0.27998,1.58844 0.41996,-1.48284 0.13999,-3.07129 0.27997,1.59111 0.41996,-1.48652 0.13999,-3.07764 0.27997,1.594 0.41996,-1.48998 0.13999,-3.08398 0.27997,1.59713 0.41996,-1.4932 0.13998,-3.09031 0.27997,1.6005 0.41996,-1.49616 0.13998,-3.09667 0.27996,1.60409 0.41996,-1.49892 0.13998,-3.10301 0.27996,1.60792 0.41995,-1.50143 0.13999,-3.10936 0.27997,1.61201 0.41996,-1.50369 0.13998,-3.1157 0.27997,1.61633 0.41996,-1.50573 0.13998,-3.12205 0.27996,1.62088 0.41996,-1.50751 0.13998,-3.1284 0.27997,1.62566 0.41995,-1.50908 0.13999,-3.13474 0.27998,1.6307 0.41996,-1.51039 0.13999,-3.14108 0.27998,1.63596 0.41997,-1.51147 0.13998,-3.14743 0.27997,1.64147 0.41995,-1.5123 0.13999,-3.15377 0.27998,1.64722 0.41996,-1.51291 0.13998,-3.16011 0.27998,1.65321 0.41996,-1.51326 0.13998,-3.16646 0.27997,1.65943 0.41996,-1.51338 0.13998,-3.17281 0.27997,1.66589 0.41995,-1.51326 0.14,-3.17916 0.27998,1.6726 0.41996,-1.5129 0.13999,-3.18551 0.27998,1.67954 0.41996,-1.51231 0.13999,-3.19185 0.27997,1.68672 0.41996,-1.51147 0.13999,-3.19819 0.27997,1.69415 0.41995,-1.51038 0.14,-3.20455 0.27998,1.7018 0.41996,-1.50908 0.13999,-3.21088 0.27998,1.70971 0.41996,-1.50752 0.13999,-3.21723 0.27997,1.71785 0.41996,-1.50573 0.13999,-3.22357 0.27997,1.72624 0.41996,-1.50369 0.13999,-3.22993 0.27997,1.73485 0.41996,-1.50142 0.13998,-3.23627 0.27997,1.7437 0.41997,-1.49893 0.13998,-3.24261 0.27996,1.7528 0.41996,-1.49617 0.13998,-3.24896 0.27996,1.76212 0.41995,-1.49319 0.13999,-3.25531 0.27997,1.77168 0.41996,-1.48997 0.13998,-3.26165 0.27997,1.78147 0.41996,-1.48653 0.13998,-3.26799 0.27996,1.79151 0.41996,-1.48283 0.13998,-3.27435 0.27997,1.80178 0.41995,-1.47891 0.13999,-3.28069 0.27998,1.81228 0.41996,-1.47475 0.13998,-3.28704 0.27998,1.82301 0.41996,-1.47037 0.13998,-3.29338 0.27997,1.83399 0.41996,-1.46574 0.13998,-3.29973 0.27997,1.84519 0.41995,-1.46089 0.13999,-3.30607 0.27998,1.85662 0.41996,-1.4558 0.13998,-3.31241 0.27998,1.86828 0.41996,-1.45049 0.13998,-3.31875 0.27997,1.88018 0.41996,-1.44493 0.13999,-3.3251 0.27997,1.89229 0.41995,-1.43917 0.14,-3.33145 0.27998,1.90464 0.41996,-1.43316 0.13999,-3.3378 0.27999,1.91722 0.41997,-1.42693 0.13999,-3.34415 0.27997,1.93001 0.41996,-1.42049 0.13999,-3.35049 0.27997,1.94304 0.41995,-1.41379 0.14,-3.35684 0.27998,1.95629 0.41996,-1.40689 0.13999,-3.36319 0.27998,1.96974 0.41996,-1.39978 0.13999,-3.36952 0.27997,1.98345 0.41997,-1.39243 0.13998,-3.37587 0.27996,1.99736 0.41995,-1.38485 0.13998,-3.38222 0.27997,2.01149 0.41996,-1.37707 0.13998,-3.38856 0.27996,2.02585 0.41996,-1.36907 0.13998,-3.39491 0.27996,2.04042 0.41995,-1.36084 0.13999,-3.40126 0.27997,2.05519 0.41996,-1.3524 0.13998,-3.4076 0.27997,2.07018 0.41996,-1.34377 0.13998,-3.41394 0.27996,2.0854 0.41996,-1.33489 0.13998,-3.4203 0.27997,2.10082 0.41995,-1.32582 0.13999,-3.42663 0.27998,2.11646 0.41996,-1.31654 0.13998,-3.43298 0.27998,2.1323 0.41996,-1.30704 0.13999,-3.43933 0.27998,2.14833 0.41997,-1.29734 0.13998,-3.44567 0.27997,2.16459 0.41995,-1.28744 0.13999,-3.45202 0.27998,2.18103 0.41996,-1.27733 0.13998,-3.45837 0.27998,2.19769 0.41996,-1.26703 0.13998,-3.46471 0.27997,2.21456 0.41996,-1.25651 0.13999,-3.47105 0.27997,2.23161 0.41995,-1.2458 0.14,-3.4774 0.27998,2.24886 0.41996,-1.23489 0.13999,-3.48375 0.27998,2.2663 0.41996,-1.22379 0.13999,-3.4901 0.27997,2.28394 0.41996,-1.2125 0.13999,-3.49644 0.27997,2.30178 0.41995,-1.201 0.14,-3.50279 0.27998,2.31979 0.41996,-1.18933 0.13999,-3.50914 0.27998,2.33801 0.41996,-1.17747 0.13999,-3.51548 0.27997,2.35641 0.41996,-1.16541 0.13999,-3.52183 0.27997,2.37498 0.41996,-1.15318 0.13999,-3.52817 0.27997,2.39375 0.41996,-1.14076 0.13998,-3.53452 0.27997,2.4127 0.41996,-1.12816 0.13999,-3.54086 0.27997,2.43182 0.41997,-1.11538 0.13998,-3.5472 0.27996,2.45112 0.41995,-1.10243 0.13999,-3.55354 0.27997,2.4706 0.41996,-1.08929 0.13998,-3.5599 0.27997,2.49025 0.41996,-1.076 0.13998,-3.56624 0.27996,2.51007 0.41996,-1.06252 0.13998,-3.57259 0.27997,2.53005 0.41995,-1.04888 0.13999,-3.57894 0.27998,2.55019 0.41996,-1.03509 0.13998,-3.58528 0.27998,2.57052 0.41996,-1.02111 0.13998,-3.59162 0.27997,2.591 0.41996,-1.00698 0.13998,-3.59796 0.27997,2.61163 0.41995,-0.99268 0.13999,-3.60431 0.27998,2.63242 0.41996,-0.97825 0.13998,-3.61065 0.27998,2.65337 0.41996,-0.96363 0.13998,-3.61701 0.27997,2.67447 0.41995,-0.94889 0.14,-3.62336 0.27998,2.69572 0.41996,-0.93397 0.13999,-3.62971 0.27998,2.71711 0.41996,-0.91894 0.13999,-3.63604 0.27997,2.73867 0.41997,-0.90372 0.13999,-3.64239 0.27997,2.76035 0.41995,-0.88839 0.14,-3.64873 0.27998,2.78217 0.41996,-0.87292 0.13999,-3.65507 0.27998,2.80415 0.41996,-0.85727 0.13999,-3.66143 0.27997,2.82624 0.41996,-0.84154 0.13999,-3.66778 0.27997,2.84848 0.41996,-0.82564 0.13999,-3.67412 0.27997,2.87084 0.41996,-0.80963 0.13998,-3.68046 0.27997,2.89334 0.41996,-0.79348 0.13998,-3.68681 0.27996,2.91596 0.41996,-0.7772 0.13998,-3.69315 0.27996,2.93869 0.41995,-0.7608 0.13999,-3.69951 0.27997,2.96154 0.41996,-0.7443 0.13998,-3.70585 0.27997,2.98454 0.41996,-0.72766 0.13998,-3.71219 0.27996,3.00763 0.41996,-0.71091 0.13998,-3.71853 0.27997,3.03084 0.41995,-0.69404 0.13999,-3.72489 0.27998,3.05415 0.41996,-0.67708 0.13998,-3.73123 0.27998,3.07758 0.41996,-0.66001 0.13998,-3.73756 0.27998,3.10111 0.41997,-0.64281 0.13998,-3.74392 0.27997,3.12473 0.41995,-0.62553 0.13999,-3.75027 0.27998,3.14846 0.41996,-0.60814 0.13998,-3.75661 0.27998,3.17228 0.41996,-0.59068 0.13998,-3.76296 0.27997,3.19621 0.41996,-0.57309 0.13999,-3.7693 0.27997,3.22021 0.41995,-0.55544 0.14,-3.77564 0.27998,3.24432 0.41996,-0.53768 0.13999,-3.78198 0.27998,3.26851 0.41996,-0.51983 0.13999,-3.78835 0.27997,3.29276 0.41996,-0.50193 0.13999,-3.79468 0.27997,3.31711 0.41995,-0.48392 0.14,-3.80103 0.27998,3.34152 0.41996,-0.46585 0.13999,-3.80738 0.27998,3.36602 0.41996,-0.44771 0.13999,-3.81372 0.27997,3.39059 0.41997,-0.42948 0.13998,-3.82006 0.27996,3.41522 0.41995,-0.41119 0.13999,-3.82641 0.27997,3.43992 0.41996,-0.39284 0.13998,-3.83276 0.27997,3.46468 0.41996,-0.37443 0.13999,-3.8391 0.27997,3.4895 0.41997,-0.35595 0.13998,-3.84545 0.27996,3.51438 0.41995,-0.33742 0.13999,-3.85179 0.27997,3.5393 0.41996,-0.31884 0.13998,-3.85814 0.27996,3.56428 0.41996,-0.3002 0.13998,-3.86448 0.27997,3.5893 0.41995,-0.28153 0.13999,-3.87083 0.27998,3.61438 0.41996,-0.26279 0.13998,-3.87718 0.27998,3.63949 0.41996,-0.24403 0.13998,-3.88352 0.27997,3.66464 0.41996,-0.22522 0.13998,-3.88987 0.27997,3.68983 0.41995,-0.20638 0.13999,-3.89622 0.27998,3.71506 0.41996,-0.1875 0.13998,-3.90257 0.27998,3.7403 0.41996,-0.16861 0.13998,-3.9089 0.27997,3.76559 0.41996,-0.14967 0.13999,-3.91525 0.27997,3.79089 0.41995,-0.1307 0.14,-3.92161 0.27998,3.81619 0.41996,-0.11175 0.13999,-3.92794 0.27998,3.84154 0.41996,-0.0928 0.13999,-3.93428 0.27997,3.8669 0.41996,-0.0738 0.14,-3.94063 0.27998,3.89227 0.41996,-0.0547 0.14,-3.94699 0.27998,3.91763 0.41996,-0.0357 0.13999,-3.95333 0.27998,3.94301 0.41996,-0.0167 0.13999,-3.95967 0.27997,3.9684 0.41997,0.002 0.13998,-3.96603 0.27996,3.99376 0.41995,0.0214 0.13999,-3.97236 0.27997,4.01916 0.41996,0.0404 0.13998,-3.9787 0.27997,4.04454 0.41996,0.0594 0.13998,-3.98505 0.27996,4.06989 0.41996,0.0785 0.13998,-3.9914 0.27996,4.09524 0.41995,0.0975 0.13999,-3.99774 0.27997,4.12058 0.41996,0.11649 0.13998,-4.00409 0.27997,4.14589 0.41996,0.13545 0.13998,-4.01043 0.27997,4.17119 0.41996,0.15441 0.13998,-4.01679 0.27997,4.19646 0.41995,0.17333 0.13999,-4.02313 0.27998,4.2217 0.41996,0.19222 0.13998,-4.02947 0.27998,4.24691 0.41996,0.2111 0.13998,-4.03582 0.27997,4.27208 0.41997,0.22992 0.13998,-4.04216 0.27997,4.29723 0.41995,0.24873 0.13999,-4.04851 0.27998,4.32234 0.41996,0.26748 0.13998,-4.05485 0.27998,4.3474 0.41996,0.28619 0.13999,-4.06119 0.27997,4.37242 0.41996,0.30488 0.13999,-4.06756 0.27997,4.39738 0.41995,0.32348 0.14,-4.07389 0.27998,4.42231 0.41996,0.34206 0.13999,-4.08024 0.27998,4.44716 0.41996,0.36058 0.13999,-4.08659 0.27997,4.47196 0.41996,0.37903 0.13999,-4.09292 0.27997,4.49672 0.41995,0.39744 0.13999,-4.09928 0.27998,4.5214 0.41996,0.41577 0.13999,-4.10562 0.27997,4.54601 0.41997,0.43405 0.13998,-4.11198 0.27996,4.57055 0.41995,0.45224 0.13999,-4.11831 0.27997,4.59503 0.41996,0.47038 0.13998,-4.12466 0.27997,4.61943 0.41996,0.48843 0.13998,-4.13101 0.27996,4.64376 0.41996,0.50641 0.13998,-4.13734 0.27997,4.66801 0.41996,0.52431 0.13999,-4.1437 0.27997,4.69216 0.41996,0.54212 0.13998,-4.15004 0.27997,4.71624 0.41996,0.55986 0.13998,-4.15638 0.27996,4.74023 0.41996,0.5775 0.13998,-4.16273 0.27997,4.76412 0.41995,0.59504 0.13999,-4.16908 0.27998,4.78793 0.41996,0.61251 0.13998,-4.17543 0.27998,4.81163 0.41996,0.62985 0.13998,-4.18176 0.27997,4.83524 0.41996,0.64713 0.13998,-4.18811 0.27997,4.85874 0.41995,0.66428 0.13999,-4.19446 0.27998,4.88213 0.41996,0.68132 0.13998,-4.20079 0.27998,4.90543 0.41996,0.69828 0.13998,-4.20715 0.27997,4.92861 0.41996,0.71511 0.13999,-4.21349 0.27997,4.95167 0.41995,0.73183 0.14,-4.21984 0.27998,4.97462 0.41996,0.74843 0.13999,-4.22619 0.27998,4.99745 0.41996,0.76492 0.13999,-4.23253 0.27997,5.02016 0.41996,0.78128 0.14,-4.23887 0.27998,5.04275 0.41996,0.79754 0.14,-4.24523 0.27998,5.06521 0.41996,0.81363 0.13999,-4.25156 0.27998,5.08754 0.41996,0.82963 0.13999,-4.25791 0.27997,5.10975 0.41997,0.84549 0.13998,-4.26427 0.27996,5.1318 0.41995,0.8612 0.13999,-4.27061 0.27997,5.15374 0.41996,0.87679 0.13998,-4.27695 0.27997,5.17554 0.41996,0.89224 0.13998,-4.28331 0.27996,5.19718 0.41996,0.90753 0.13998,-4.28964 0.27996,5.2187 0.41995,0.92271 0.13999,-4.29599 0.27997,5.24006 0.41996,0.93772 0.13998,-4.30234 0.27997,5.26127 0.41996,0.95259 0.13998,-4.30868 0.27997,5.28232 0.41996,0.9673 0.13998,-4.31503 0.27997,5.30325 0.41995,0.98187 0.13999,-4.32137 0.27998,5.32399 0.41996,0.99627 0.13998,-4.32771 0.27998,5.3446 0.41996,1.01053 0.13998,-4.33407 0.27997,5.36503 0.41996,1.02461 0.13999,-4.3404 0.27998,5.38531 0.41996,1.03856 0.13998,-4.34676 0.27998,5.40541 0.41996,1.0523 0.13998,-4.3531 0.27997,5.42536 0.41996,1.06592 0.13999,-4.35945 0.27997,5.44513 0.41995,1.07933 0.14,-4.3658 0.27998,5.46474 0.41996,1.0926 0.13999,-4.37214 0.27998,5.48416 0.41996,1.10568 0.13999,-4.37848 0.27997,5.50342 0.41996,1.11858 0.13999,-4.38482 0.27997,5.5225 0.41995,1.13134 0.14,-4.39118 0.27998,5.5414 0.41996,1.14387 0.13999,-4.39752 0.27998,5.56012 0.41996,1.15626 0.13999,-4.40386 0.27997,5.57865 0.41997,1.16844 0.13998,-4.41021 0.27996,5.59701 0.41995,1.18045 0.13999,-4.41655 0.27997,5.61517 0.41996,1.19227 0.13998,-4.4229 0.27997,5.63314 0.41996,1.2039 0.13998,-4.42925 0.27996,5.65093 0.41996,1.21533 0.13998,-4.43559 0.27996,5.66853 0.41996,1.2266 0.13999,-4.44194 0.27997,5.68592 0.41996,1.23763 0.13998,-4.44828 0.27997,5.70312 0.41996,1.2485 0.13998,-4.45463 0.27997,5.72013 0.41996,1.25915 0.13998,-4.46097 0.27997,5.73694 0.41995,1.26963 0.13999,-4.46733 0.27998,5.75353 0.41996,1.27987 0.13998,-4.47366 0.27998,5.76994 0.41996,1.28993 0.13998,-4.48001 0.27997,5.78615 0.41996,1.29979 0.13998,-4.48635 0.27997,5.80214 0.41995,1.30944 0.13999,-4.49271 0.27998,5.81793 0.41996,1.31888 0.13998,-4.49906 0.27998,5.8335 0.41996,1.3281 0.13999,-4.50539 0.27997,5.84887 0.41996,1.33713 0.13999,-4.51174 0.27997,5.86403 0.41995,1.34594 0.14,-4.51809 0.27998,5.87897 0.41996,1.35454 0.13999,-4.52443 0.27998,5.89369 0.41996,1.36292 0.13999,-4.53078 0.27997,5.90821 0.41996,1.37109 0.13999,-4.53713 0.27998,5.9225 0.41996,1.37903 0.14,-4.54347 0.27998,5.93658 0.41996,1.38677 0.13999,-4.54982 0.27998,5.95045 0.41997,1.39428 0.13998,-4.55616 0.27996,5.96408 0.41996,1.40157 0.13998,-4.56251 0.27996,5.9775 0.41995,1.40865 0.13999,-4.56885 0.27997,5.99068 0.41996,1.41549 0.13998,-4.5752 0.27996,6.00365 0.41996,1.42212 0.13998,-4.58155 0.27996,6.01639 0.41995,1.42851 0.13999,-4.58789 0.27997,6.02891 0.41996,1.43468 0.13998,-4.59424 0.27997,6.0412 0.41996,1.44063 0.13998,-4.60058 0.27997,6.05327 0.41996,1.44635 0.13998,-4.60693 0.27997,6.0651 0.41995,1.45183 0.13999,-4.61327 0.27998,6.07671 0.41996,1.45709 0.13998,-4.61961 0.27998,6.08809 0.41996,1.46213 0.13998,-4.62596 0.27997,6.09922 0.41996,1.46692 0.13998,-4.63231 0.27997,6.11013 0.41995,1.47148 0.14,-4.63865 0.27999,6.12081 0.41997,1.47582 0.13998,-4.645 0.27998,6.13125 0.41996,1.47991 0.13999,-4.65134 0.27997,6.14147 0.41996,1.48379 0.13999,-4.6577 0.27997,6.15143 0.41995,1.48739 0.14,-4.66403 0.27998,6.16119 0.41996,1.49081 0.13999,-4.67038 0.27998,6.17069 0.41996,1.49396 0.13999,-4.67673 0.27997,6.17995 0.41996,1.49688 0.13999,-4.68307 0.27997,6.18898 0.41995,1.49957 0.14,-4.68943 0.27998,6.19777 0.41996,1.50201 0.13999,-4.69576 0.27998,6.20633 0.41997,1.50423 0.13998,-4.70212 0.27996,6.21465 0.41996,1.50619 0.13998,-4.70846 0.27996,6.22274 0.41995,1.50793 0.13999,-4.71481 0.27997,6.23057 0.41996,1.50943 0.13998,-4.72115 0.27997,6.23818 0.41996,1.51068 0.13998,-4.72749 0.27996,6.24554 0.41996,1.5117 0.13998,-4.73384 0.27996,6.25266 0.41996,1.51248 0.13999,-4.74019 0.27997,6.25954 0.41996,1.51301 0.13998,-4.74653 0.27998,6.26619 0.41996,1.51331 0.13998,-4.75287 0.27997,6.2726 0.41996,1.51338 0.13998,-4.75922 0.27997,6.27876 0.41995,1.5132 0.13999,-4.76557 0.27998,6.28469 0.41996,1.51277 0.13998,-4.7719 0.27998,6.29037 0.41996,1.51211 0.13998,-4.77826 0.27997,6.29583 0.41996,1.51122 0.13998,-4.78459 0.27997,6.30104 0.41995,1.51008 0.13999,-4.79093 0.27998,6.306 0.41996,1.50871 0.13998,-4.79728 0.27998,6.31074 0.41996,1.5071 0.13999,-4.80364 0.27997,6.31522 0.41996,1.50524 0.13999,-4.80999 0.27997,6.31948 0.41995,1.50315 0.13999,-4.81633 0.27998,6.3235 0.41996,1.50082 0.13999,-4.82268 0.27997,6.32727 0.41996,1.49825 0.13999,-4.82902 0.27997,6.33083 0.41995,1.49546 0.14,-4.83537 0.27998,6.33412 0.41997,1.4924 0.13999,-4.84171 0.27998,6.33719 0.41996,1.48913 0.13999,-4.84805 0.27997,6.34003 0.41997,1.48563 0.13998,-4.8544 0.27996,6.34262 0.41995,1.48188 0.13999,-4.86075 0.27997,6.34499 0.41996,1.47789 0.13998,-4.86709 0.27997,6.34713 0.41996,1.47368 0.13998,-4.87345 0.27996,6.34902 0.41996,1.46923 0.13998,-4.87979 0.27996,6.35068 0.41995,1.46455 0.13999,-4.88613 0.27997,6.35212 0.41996,1.45964 0.13998,-4.89248 0.27997,6.35332 0.41996,1.45449 0.13998,-4.89882 0.27997,6.35429 0.41996,1.44912 0.13998,-4.90517 0.27997,6.35503 0.41995,1.44352 0.13999,-4.91152 0.27998,6.35554 0.41996,1.43768 0.13998,-4.91785 0.27998,6.35584 0.41996,1.43163 0.13998,-4.9242 0.27997,6.3559 0.41996,1.42534 0.13998,-4.93055 0.27997,6.35573 0.41995,1.41883 0.13999,-4.93689 0.27999,6.35534 0.41997,1.41209 0.13998,-4.94324 0.27998,6.35473 0.41996,1.40514 0.13999,-4.94959 0.27997,6.35389 0.41996,1.39796 0.13999,-4.95594 0.27997,6.35284 0.41995,1.39055 0.14,-4.96228 0.27998,6.35156 0.41996,1.38293 0.13999,-4.96862 0.27998,6.35006 0.41996,1.37509 0.13999,-4.97497 0.27997,6.34835 0.41996,1.36702 0.13999,-4.98131 0.27997,6.34643 0.41995,1.35876 0.14,-4.98766 0.27998,6.34428 0.41996,1.35027 0.13999,-4.99401 0.27998,6.34191 0.41997,1.34156 0.13998,-5.00036 0.27996,6.33935 0.41996,1.33265 0.13998,-5.00671 0.27996,6.33656 0.41995,1.32351 0.13999,-5.01304 0.27997,6.33357 0.41996,1.31419 0.13998,-5.0194 0.27997,6.33037 0.41996,1.30464 0.13998,-5.02574 0.27996,6.32696 0.41996,1.29488 0.13998,-5.03209 0.27996,6.32336 0.41995,1.28493 0.14,-5.03843 0.27998,6.31955 0.41997,1.27478 0.13998,-5.04478 0.27998,6.31552 0.41996,1.26441 0.13998,-5.05112 0.27997,6.31131 0.41995,1.25385 0.13999,-5.05746 0.27998,6.3069 0.41996,1.24309 0.13998,-5.06381 0.27998,6.3023 0.41996,1.23214 0.13998,-5.07016 0.27997,6.29749 0.41996,1.22098 0.13998,-5.07649 0.27997,6.2925 0.41995,1.20964 0.13999,-5.08284 0.27998,6.28731 0.41996,1.19811 0.13998,-5.08919 0.27998,6.28193 0.41996,1.18639 0.13999,-5.09554 0.27997,6.27635 0.41996,1.17447 0.13999,-5.10189 0.27997,6.2706 0.41995,1.16236 0.14,-5.10823 0.27998,6.26468 0.41996,1.1501 0.13999,-5.11458 0.27998,6.25854 0.41996,1.13762 0.13999,-5.12092 0.27997,6.25225 0.41996,1.12498 0.13999,-5.12726 0.27997,6.24577 0.41995,1.11216 0.14,-5.13361 0.27998,6.23912 0.41997,1.09915 0.13999,-5.13995 0.27998,6.2323 0.41997,1.086 0.13998,-5.14631 0.27996,6.2253 0.41996,1.07264 0.13998,-5.15265 0.27996,6.21813 0.41995,1.05913 0.13999,-5.15899 0.27997,6.21079 0.41996,1.04545 0.13998,-5.16534 0.27997,6.20329 0.41996,1.0316 0.13998,-5.17169 0.27996,6.19563 0.41996,1.0176 0.13998,-5.17804 0.27996,6.1878 0.41995,1.00342 0.13999,-5.18439 0.27997,6.1798 0.41996,0.98909 0.13998,-5.19073 0.27998,6.17167 0.41996,0.9746 0.13998,-5.19707 0.27997,6.16338 0.41996,0.95996 0.13998,-5.20341 0.27997,6.15494 0.41995,0.94517 0.13999,-5.20975 0.27998,6.14634 0.41996,0.93023 0.13998,-5.2161 0.27998,6.1376 0.41996,0.91515 0.13998,-5.22246 0.27997,6.1287 0.41996,0.8999 0.13998,-5.22879 0.27997,6.11969 0.41995,0.88453 0.13999,-5.23514 0.27999,6.11051 0.41997,0.86902 0.13999,-5.24148 0.27998,6.1012 0.41996,0.85336 0.13999,-5.24783 0.27997,6.09175 0.41996,0.83758 0.13999,-5.25418 0.27997,6.08217 0.41995,0.82164 0.14,-5.26052 0.27998,6.07248 0.41996,0.8056 0.13999,-5.26686 0.27998,6.06264 0.41996,0.78943 0.13999,-5.27322 0.27997,6.05267 0.41996,0.77311 0.13999,-5.27956 0.27997,6.04259 0.41995,0.7567 0.14,-5.28591 0.27998,6.03239 0.41997,0.74015 0.13998,-5.29226 0.27996,6.02207 0.41996,0.72347 0.13998,-5.29859 0.27996,6.01165 0.41995,0.7067 0.13999,-5.30494 0.27997,6.00111 0.41996,0.68982 0.13998,-5.31129 0.27997,5.99045 0.41996,0.67282 0.13998,-5.31764 0.27996,5.97969 0.41996,0.65571 0.13998,-5.32397 0.27996,5.96883 0.41995,0.63851 0.13999,-5.33033 0.27997,5.95787 0.41996,0.62119 0.13998,-5.33667 0.27999,5.94681 0.41997,0.60379 0.13998,-5.34302 0.27997,5.93564 0.41996,0.58628 0.13998,-5.34937 0.27997,5.9244 0.41995,0.56869 0.13999,-5.35571 0.27998,5.91305 0.41996,0.551 0.13998,-5.36205 0.27998,5.90163 0.41996,0.53323 0.13998,-5.3684 0.27997,5.89012 0.41996,0.51536 0.13998,-5.37473 0.27997,5.87854 0.41995,0.49744 0.13999,-5.38109 0.27998,5.86685 0.41996,0.47942 0.13999,-5.38744 0.27998,5.8551 0.41996,0.46131 0.13999,-5.39378 0.27997,5.84329 0.41996,0.44316 0.13999,-5.40014 0.27997,5.83139 0.41995,0.42491 0.14,-5.40647 0.27998,5.81943 0.41996,0.40662 0.13999,-5.41283 0.27998,5.80741 0.41996,0.38823 0.13999,-5.41916 0.27997,5.79533 0.41996,0.36982 0.13999,-5.42551 0.27997,5.78319 0.41995,0.35133 0.14,-5.43186 0.27998,5.77098 0.41996,0.33278 0.14,-5.43821 0.27999,5.75872 0.41998,0.31418 0.13998,-5.44455 0.27996,5.74643 0.41996,0.29554 0.13998,-5.45089 0.27996,5.73408 0.41995,0.27684 0.13999,-5.45724 0.27997,5.7217 0.41996,0.25811 0.13998,-5.46359 0.27997,5.70926 0.41996,0.23933 0.13998,-5.46993 0.27996,5.69679 0.41996,0.22051 0.13998,-5.47627 0.27996,5.68429 0.41995,0.20167 0.13999,-5.48262 0.27997,5.67175 0.41996,0.18278 0.13998,-5.48897 0.27998,5.65919 0.41996,0.16388 0.13998,-5.49532 0.27997,5.64658 0.41996,0.14492 0.13998,-5.50166 0.27997,5.63398 0.41995,0.12597 0.13999,-5.508 0.27998,5.62135 0.41996,0.107 0.13998,-5.51436 0.27998,5.60869 0.41996,0.088 0.13998,-5.5207 0.27997,5.59602 0.41996,0.069 0.13998,-5.52705 0.27997,5.58334 0.41995,0.0499 0.13998,-5.5334 0.27998,5.57066 0.41997,0.0309 0.13999,-5.53974 0.27997,5.55798 0.41996,0.0119 0.13999,-5.54608 0.27997,5.54529 0.41995,-0.007 0.14,-5.55243 0.27998,5.53259 0.41996,-0.0261 0.13999,-5.55877 0.27998,5.51991 0.41996,-0.0452 0.13999,-5.56511 0.27997,5.50723 0.41996,-0.0643 0.13999,-5.57146 0.27997,5.49456 0.41995,-0.0833 0.14,-5.5778 0.27998,5.48192 0.41996,-0.10224 0.13999,-5.58415 0.27998,5.46927 0.41997,-0.12123 0.13998,-5.5905 0.27996,5.45665 0.41996,-0.14019 0.13998,-5.59685 0.27996,5.44405 0.41995,-0.15914 0.13999,-5.60319 0.27997,5.43148 0.41996,-0.17806 0.13998,-5.60953 0.27997,5.41894 0.41996,-0.19694 0.13998,-5.61589 0.27996,5.40642 0.41996,-0.21581 0.13998,-5.62223 0.27996,5.39394 0.41995,-0.23462 0.13999,-5.62858 0.27997,5.38149 0.41996,-0.25343 0.13998,-5.63491 0.27999,5.3691 0.41997,-0.27216 0.13998,-5.64126 0.27997,5.35674 0.41996,-0.29087 0.13998,-5.64761 0.27997,5.34443 0.41995,-0.30953 0.13999,-5.65395 0.27998,5.33217 0.41996,-0.32813 0.13998,-5.66031 0.27998,5.31995 0.41996,-0.3467 0.13998,-5.66664 0.27997,5.3078 0.41996,-0.36519 0.13998,-5.673 0.27997,5.29569 0.41995,-0.38364 0.13999,-5.67934 0.27998,5.28365 0.41996,-0.40203 0.13999,-5.68568 0.27998,5.27169 0.41996,-0.42035 0.13999,-5.69202 0.27997,5.25978 0.41996,-0.4386 0.13999,-5.69837 0.27997,5.24794 0.41995,-0.45678 0.14,-5.70472 0.27998,5.23617 0.41996,-0.4749 0.13999,-5.71106 0.27998,5.22448 0.41996,-0.49293 0.13999,-5.71741 0.27997,5.21286 0.41996,-0.5109 0.13999,-5.72375 0.27997,5.20134 0.41995,-0.52876 0.14,-5.7301 0.27998,5.18987 0.41997,-0.54657 0.13999,-5.73645 0.27998,5.17852 0.41997,-0.56427 0.13998,-5.74281 0.27996,5.16724 0.41996,-0.5819 0.13998,-5.74914 0.27996,5.15606 0.41995,-0.59941 0.13999,-5.75549 0.27997,5.14497 0.41996,-0.61686 0.13998,-5.76183 0.27997,5.13399 0.41996,-0.63419 0.13998,-5.76817 0.27996,5.1231 0.41995,-0.65142 0.13999,-5.77452 0.27997,5.11232 0.41996,-0.66855 0.13998,-5.78086 0.27998,5.10164 0.41996,-0.68558 0.13998,-5.78721 0.27997,5.09107 0.41996,-0.70249 0.13998,-5.79355 0.27997,5.0806 0.41995,-0.71929 0.13999,-5.79991 0.27998,5.07025 0.41996,-0.73599 0.13998,-5.80626 0.27998,5.06002 0.41996,-0.75257 0.13998,-5.81259 0.27997,5.04991 0.41996,-0.76903 0.13998,-5.81894 0.27997,5.03994 0.41995,-0.78535 0.13999,-5.82529 0.27998,5.03006 0.41996,-0.80157 0.13999,-5.83163 0.27998,5.02033 0.41996,-0.81765 0.14,-5.83798 0.27998,5.01072 0.41997,-0.83361 0.13999,-5.84432 0.27997,5.00125 0.41995,-0.84942 0.14,-5.85067 0.27998,4.9919 0.41996,-0.86511 0.13999,-5.85701 0.27998,4.98269 0.41996,-0.88067 0.13999,-5.86336 0.27997,4.97363 0.41996,-0.89608 0.13999,-5.8697 0.27997,4.96471 0.41995,-0.91134 0.14,-5.87605 0.27998,4.95593 0.41997,-0.92647 0.13998,-5.8824 0.27997,4.94729 0.41996,-0.94145 0.13998,-5.88874 0.27996,4.9388 0.41996,-0.95628 0.13998,-5.89509 0.27996,4.93047 0.41995,-0.97096 0.13999,-5.90144 0.27997,4.9223 0.41996,-0.98549 0.13998,-5.90778 0.27997,4.91428 0.41996,-0.99986 0.13998,-5.91411 0.27996,4.90642 0.41996,-1.01406 0.13998,-5.92046 0.27996,4.8987 0.41995,-1.02811 0.13999,-5.92681 0.27998,4.89116 0.41996,-1.04201 0.13998,-5.93315 0.27998,4.88379 0.41997,-1.05572 0.13998,-5.9395 0.27997,4.87658 0.41996,-1.06928 0.13998,-5.94585 0.27997,4.86953 0.41995,-1.08267 0.13999,-5.95219 0.27998,4.86267 0.41996,-1.09588 0.13998,-5.95855 0.27998,4.85597 0.41996,-1.10892 0.13998,-5.96489 0.27997,4.84944 0.41996,-1.1218 0.13998,-5.97123 0.27997,4.8431 0.41995,-1.13447 0.14,-5.97759 0.27998,4.83694 0.41996,-1.147 0.13999,-5.98393 0.27998,4.83097 0.41996,-1.15932 0.13999,-5.99027 0.27997,4.82517 0.41996,-1.17146 0.13999,-5.99662 0.27997,4.81954 0.41995,-1.18341 0.14,-6.00297 0.27998,4.81411 0.41996,-1.1952 0.13999,-6.00931 0.27997,4.80888 0.41996,-1.20678 0.13999,-6.01565 0.27997,4.80383 0.41995,-1.21817 0.14,-6.022 0.27998,4.79898 0.41997,-1.22936 0.13998,-6.02834 0.27997,4.79432 0.41996,-1.24038 0.13998,-6.03469 0.27997,4.78986 0.41997,-1.25117 0.13998,-6.04104 0.27996,4.78559 0.41995,-1.2618 0.13999,-6.04737 0.27997,4.78153 0.41996,-1.2722 0.13998,-6.05373 0.27997,4.77766 0.41996,-1.28241 0.13998,-6.06007 0.27996,4.774 0.41996,-1.29242 0.13998,-6.06642 0.27996,4.77055 0.41995,-1.30222 0.13999,-6.07276 0.27997,4.7673 0.41996,-1.31181 0.13998,-6.07911 0.27998,4.76425 0.41996,-1.3212 0.13998,-6.08546 0.27997,4.76141 0.41996,-1.33038 0.13998,-6.09181 0.27997,4.75879 0.41995,-1.33936 0.13999,-6.09815 0.27998,4.75639 0.41996,-1.34811 0.13998,-6.10449 0.27998,4.75418 0.41996,-1.35666 0.13998,-6.11083 0.27997,4.75221 0.41996,-1.36497 0.13998,-6.11719 0.27997,4.75044 0.41995,-1.37309 0.13999,-6.12354 0.27998,4.74888 0.41996,-1.381 0.13999,-6.12987 0.27998,4.74756 0.41996,-1.38866 0.14,-6.13623 0.27998,4.74644 0.41997,-1.39612 0.13999,-6.14258 0.27997,4.74554 0.41995,-1.40338 0.14,-6.14891 0.27998,4.74489 0.41996,-1.41037 0.13999,-6.15526 0.27998,4.74444 0.41996,-1.41717 0.13999,-6.1616 0.27997,4.74422 0.41996,-1.42373 0.13999,-6.16795 0.27997,4.74422 0.41995,-1.43007 0.14,-6.17431 0.27998,4.74444 0.41997,-1.4362 0.13998,-6.18064 0.27997,4.7449 0.41996,-1.44208 0.13998,-6.18699 0.27996,4.74559 0.41996,-1.44775 0.13998,-6.19332 0.27996,4.74651 0.41995,-1.45316 0.13999,-6.19968 0.27997,4.74765 0.41996,-1.45838 0.13998,-6.20602 0.27997,4.74903 0.41996,-1.46333 0.13998,-6.21238 0.27996,4.75062 0.41996,-1.46809 0.13998,-6.21872 0.27996,4.75248 0.41995,-1.47259 0.13999,-6.22506 0.27998,4.75454 0.41996,-1.47686 0.13998,-6.23141 0.27998,4.75685 0.41996,-1.48091 0.13999,-6.23775 0.27998,4.7594 0.41997,-1.4847 0.13998,-6.2441 0.27997,4.76216 0.41995,-1.48827 0.13998,-6.25045 0.27998,4.76517 0.41996,-1.49162 0.13998,-6.25678 0.27997,4.76842 0.41996,-1.49471 0.13998,-6.26314 0.27997,4.7719 0.41995,-1.49758 0.13999,-6.26948 0.27998,4.77562 0.41996,-1.5002 0.13999,-6.27583 0.27998,4.77958 0.41996,-1.50259 0.13999,-6.28217 0.27997,4.78378 0.41996,-1.50474 0.13999,-6.28852 0.27997,4.78821 0.41995,-1.50665 0.14,-6.29486 0.27998,4.79287 0.41996,-1.50832 0.13999,-6.30122 0.27998,4.79778 0.41996,-1.50977 0.13999,-6.30755 0.27997,4.80294 0.41996,-1.51096 0.13999,-6.31389 0.27997,4.80834 0.41995,-1.51191 0.14,-6.32025 0.27998,4.81395 0.41997,-1.51264 0.13998,-6.32659 0.27997,4.81983 0.41996,-1.51311 0.13998,-6.33294 0.27996,4.82593 0.41997,-1.51336"
       style="fill:none;fill-opacity:1;stroke:#000000;stroke-width:3.0259912;stroke-miterlimit:4;stroke-dasharray:none;stroke-opacity:1"
       inkscape:connector-curvature="0"
       sodipodi:nodetypes="ccsccccccsccccccccccccsssssssccccccccccccccccssssssssccccccccccccccccssssssssccscsscccssccssssssssssssssssssssssssssssssssssssssssssssssssssssssssssssssssssssssssssssssssssssssssssssssssssssssssssssssssssssssssssssssssssssssssssssssssssssssssssssssssssssssssssssssssssssssssssssssssssssssssssssssssssssssssssssssssssssssssssssssssssssssssssssssssssssssssssssssssssssssssssssssssssssssssssssssssssssssssssssssssssssssssssssssssssssssssssssssssssssssssssssssssssssssssssssssssssssssssssssssssssssssssssssssssssssssssssssssssssssssssssssssssssssssssssssssssssssssssssssssssssssssssssssssssssssssssssssssssssssssssssssssssssssssssssssssssssssssssssssssssssssssssssssssssssssssssssssssssssssssssssssssssssssssssssssssssssssssssssssssssssssssssssssssssssssssssssssssssssssssssssssssssssssssssssssssssssssssssssssssssssssssssssssssssssssssssssssssssssssssssssssssssssssssssssssssssssssssssssssssssssssssssssssssssssssssssssssssssssssssssssssssssssssssssssssssssssssssssssssssssssssssssssssssssssssssc" />
    <path
       style="fill:none;fill-rule:evenodd;stroke:#000000;stroke-width:3.89144468;stroke-linecap:butt;stroke-linejoin:miter;stroke-miterlimit:4;stroke-dasharray:none;stroke-opacity:1;marker-start:url(#Arrow1Mstart);marker-end:url(#Arrow1Mend)"
       d="m 154.1443,249.29089 199.81817,0"
       id="path4288"
       inkscape:connector-curvature="0" />
    <text
       xml:space="preserve"
       style="font-style:normal;font-variant:normal;font-weight:normal;font-stretch:normal;font-size:17.5px;line-height:150%;font-family:Sans;-inkscape-font-specification:'Sans, Normal';text-align:start;letter-spacing:0px;word-spacing:0px;writing-mode:lr-tb;text-anchor:start;fill:#000000;fill-opacity:1;stroke:none;stroke-width:1px;stroke-linecap:butt;stroke-linejoin:miter;stroke-opacity:1"
       x="216.17264"
       y="241.89496"
       id="text5174"
       sodipodi:linespacing="150%"><tspan
         sodipodi:role="line"
         id="tspan5176"
         x="216.17264"
         y="241.89496"
         style="font-size:22.5px">5,3 div</tspan></text>
    <path
       style="fill:none;fill-rule:evenodd;stroke:#000000;stroke-width:3.90329671;stroke-linecap:butt;stroke-linejoin:miter;stroke-miterlimit:4;stroke-dasharray:none;stroke-opacity:1;marker-start:url(#marker5180);marker-end:url(#marker5220)"
       d="m 97.984797,137.80697 0,227.00849"
       id="path5178"
       inkscape:connector-curvature="0" />
    <text
       xml:space="preserve"
       style="font-style:normal;font-variant:normal;font-weight:normal;font-stretch:normal;font-size:22.5px;line-height:150%;font-family:Sans;-inkscape-font-specification:'Sans, Normal';text-align:start;letter-spacing:0px;word-spacing:0px;writing-mode:lr-tb;text-anchor:start;fill:#000000;fill-opacity:1;stroke:none;stroke-width:1px;stroke-linecap:butt;stroke-linejoin:miter;stroke-opacity:1"
       x="74.025414"
       y="392.77319"
       id="text5272"
       sodipodi:linespacing="150%"><tspan
         sodipodi:role="line"
         id="tspan5274"
         x="74.025414"
         y="392.77319">6 div</tspan></text>
    <text
       xml:space="preserve"
       style="font-style:normal;font-variant:normal;font-weight:normal;font-stretch:normal;font-size:20px;line-height:150%;font-family:Sans;-inkscape-font-specification:'Sans, Normal';text-align:start;letter-spacing:0px;word-spacing:0px;writing-mode:lr-tb;text-anchor:start;fill:#000000;fill-opacity:1;stroke:none;stroke-width:1px;stroke-linecap:butt;stroke-linejoin:miter;stroke-opacity:1"
       x="474.89352"
       y="78.575127"
       id="text5576"
       sodipodi:linespacing="150%"><tspan
         sodipodi:role="line"
         id="tspan5578"
         x="474.89352"
         y="78.575127"
         style="font-size:17.5px">Oskilloskoopin asetukset:</tspan><tspan
         sodipodi:role="line"
         x="474.89352"
         y="104.82513"
         id="tspan5580"
         style="font-size:17.5px" /><tspan
         sodipodi:role="line"
         x="474.89352"
         y="131.07513"
         id="tspan5582"
         style="font-size:17.5px">TIME/DIV: 100 ns/div</tspan><tspan
         sodipodi:role="line"
         x="474.89352"
         y="157.32513"
         id="tspan5584"
         style="font-size:17.5px">VOLTS/DIV: 1 V/div</tspan><tspan
         sodipodi:role="line"
         x="474.89352"
         y="183.57513"
         id="tspan5586"
         style="font-size:17.5px" /><tspan
         sodipodi:role="line"
         x="474.89352"
         y="209.82513"
         id="tspan5588"
         style="font-size:17.5px">Jaksonaika:</tspan><tspan
         sodipodi:role="line"
         x="474.89352"
         y="236.07513"
         id="tspan5590"
         style="font-size:17.5px">5,3 div * 100 ns/div = 530 ns</tspan><tspan
         sodipodi:role="line"
         x="474.89352"
         y="262.32513"
         style="font-size:17.5px"
         id="tspan5592" /><tspan
         sodipodi:role="line"
         x="474.89352"
         y="288.57513"
         style="font-size:17.5px"
         id="tspan5594">Taajuus:</tspan><tspan
         sodipodi:role="line"
         x="474.89352"
         y="314.82513"
         style="font-size:17.5px"
         id="tspan5596">1 / 530 ns = 1,88 MHz</tspan><tspan
         sodipodi:role="line"
         x="474.89352"
         y="341.07513"
         style="font-size:17.5px"
         id="tspan5598" /><tspan
         sodipodi:role="line"
         x="474.89352"
         y="367.32513"
         style="font-size:17.5px"
         id="tspan5600">Amplitudi:</tspan><tspan
         sodipodi:role="line"
         x="474.89352"
         y="393.57513"
         style="font-size:17.5px"
         id="tspan5604">6 div * 1 V = 6 V</tspan></text>
    <text
       xml:space="preserve"
       style="font-style:normal;font-variant:normal;font-weight:normal;font-stretch:normal;font-size:22.5px;line-height:150%;font-family:Sans;-inkscape-font-specification:'Sans, Normal';text-align:start;letter-spacing:0px;word-spacing:0px;writing-mode:lr-tb;text-anchor:start;fill:#000000;fill-opacity:1;stroke:none;stroke-width:1px;stroke-linecap:butt;stroke-linejoin:miter;stroke-opacity:1"
       x="604.46747"
       y="315.02472"
       id="text5627"
       sodipodi:linespacing="150%"><tspan
         sodipodi:role="line"
         id="tspan5629"
         x="604.46747"
         y="315.02472" /></text>
  </g>
</svg>
